<?xml version="1.0" encoding="UTF-8" standalone="no"?>
<!-- Generator: Adobe Illustrator 16.0.4, SVG Export Plug-In . SVG Version: 6.00 Build 0)  -->

<svg
   xmlns:dc="http://purl.org/dc/elements/1.1/"
   xmlns:cc="http://creativecommons.org/ns#"
   xmlns:rdf="http://www.w3.org/1999/02/22-rdf-syntax-ns#"
   xmlns:svg="http://www.w3.org/2000/svg"
   xmlns="http://www.w3.org/2000/svg"
   xmlns:sodipodi="http://sodipodi.sourceforge.net/DTD/sodipodi-0.dtd"
   xmlns:inkscape="http://www.inkscape.org/namespaces/inkscape"
   version="1.1"
   x="0px"
   y="0px"
   width="1200"
   height="359"
   viewBox="0 0 1200 359"
   xml:space="preserve"
   id="svg22"
   sodipodi:docname="logo-siemens.svg"
   inkscape:version="0.92.3 (2405546, 2018-03-11)"><metadata
   id="metadata28"><rdf:RDF><cc:Work
       rdf:about=""><dc:format>image/svg+xml</dc:format><dc:type
         rdf:resource="http://purl.org/dc/dcmitype/StillImage" /><dc:title></dc:title><dc:title></dc:title></cc:Work></rdf:RDF></metadata><defs
   id="defs26" /><sodipodi:namedview
   pagecolor="#ffffff"
   bordercolor="#666666"
   borderopacity="1"
   objecttolerance="10"
   gridtolerance="10"
   guidetolerance="10"
   inkscape:pageopacity="0"
   inkscape:pageshadow="2"
   inkscape:window-width="1660"
   inkscape:window-height="893"
   id="namedview24"
   showgrid="false"
   fit-margin-top="100"
   fit-margin-left="100"
   fit-margin-right="100"
   fit-margin-bottom="100"
   inkscape:zoom="0.35"
   inkscape:cx="244.28571"
   inkscape:cy="179.5"
   inkscape:window-x="0"
   inkscape:window-y="0"
   inkscape:window-maximized="0"
   inkscape:current-layer="svg22" />
<g
   id="BoundingBox"
   transform="translate(100,100)">
	<polygon
   style="fill:none"
   points="1000,0 0,0 0,0 0,159 1000,159 "
   id="polygon2" />
</g>
<g
   id="SIEMENS"
   transform="translate(100,100)">
	<g
   id="g19">
		<path
   style="clip-rule:evenodd;fill:#009999;fill-rule:evenodd"
   d="M 3.086,152.537 V 122.46 c 17.119,5.388 32.267,8.082 45.444,8.082 18.193,0 27.291,-4.809 27.291,-14.42 0,-3.583 -1.324,-6.594 -3.978,-9.032 C 69.129,104.504 62.178,100.919 51.008,96.326 30.966,88.085 17.897,81.057 11.818,75.244 3.939,67.571 0,57.895 0,46.202 0,31.144 5.74,19.667 17.212,11.78 28.557,3.962 43.33,0.057 61.554,0.057 c 10.041,0 24.574,1.848 43.583,5.549 V 34.539 C 90.993,28.889 77.864,26.07 65.734,26.07 c -17.081,0 -25.621,4.69 -25.621,14.091 0,3.514 1.72,6.38 5.165,8.602 2.865,1.798 10.759,5.596 23.665,11.406 18.583,8.253 30.954,15.427 37.118,21.529 7.314,7.238 10.978,16.604 10.978,28.084 0,16.501 -7.177,29.088 -21.521,37.761 -11.621,7.033 -26.69,10.535 -45.198,10.535 -15.63,0 -31.378,-1.841 -47.234,-5.541 z"
   id="path5"
   inkscape:connector-curvature="0" />
		<polygon
   style="clip-rule:evenodd;fill:#009999;fill-rule:evenodd"
   points="183.603,2.704 183.603,155.001 141.063,155.001 141.063,2.704 "
   id="polygon7" />
		<polygon
   style="clip-rule:evenodd;fill:#009999;fill-rule:evenodd"
   points="331.721,2.704 331.721,30.25 263.616,30.25 263.616,64.639 322.898,64.639 322.898,89.765 263.616,89.765 263.616,125.906 333.476,125.906 333.476,155.001 222.616,155.001 222.616,2.704 "
   id="polygon9" />
		<polygon
   style="clip-rule:evenodd;fill:#009999;fill-rule:evenodd"
   points="416.402,2.704 454.721,100.015 494.001,2.704 546.39,2.704 546.39,155.001 506.056,155.001 506.056,47.171 461.392,156.547 435.023,156.547 391.219,47.171 391.219,155.001 361.247,155.001 361.247,2.704 "
   id="polygon11" />
		<polygon
   style="clip-rule:evenodd;fill:#009999;fill-rule:evenodd"
   points="694.514,2.704 694.514,30.25 626.415,30.25 626.415,64.639 685.695,64.639 685.695,89.765 626.415,89.765 626.415,125.906 696.28,125.906 696.28,155.001 585.411,155.001 585.411,2.704 "
   id="polygon13" />
		<polygon
   style="clip-rule:evenodd;fill:#009999;fill-rule:evenodd"
   points="773.575,2.704 825.883,104.655 825.883,2.704 855.847,2.704 855.847,155.001 807.943,155.001 754.247,51.678 754.247,155.001 724.271,155.001 724.271,2.704 "
   id="polygon15" />
		<path
   style="clip-rule:evenodd;fill:#009999;fill-rule:evenodd"
   d="M 886.047,152.537 V 122.46 c 16.974,5.388 32.12,8.082 45.452,8.082 18.195,0 27.282,-4.809 27.282,-14.42 0,-3.583 -1.289,-6.594 -3.854,-9.032 -2.728,-2.586 -9.708,-6.171 -20.945,-10.764 C 914,88.153 900.918,81.128 894.783,75.244 886.908,67.639 882.976,57.927 882.976,46.098 c 0,-14.993 5.726,-26.432 17.21,-34.319 11.328,-7.818 26.118,-11.723 44.344,-11.723 10.247,0 23.525,1.627 39.81,4.896 l 3.761,0.653 v 28.933 c -14.146,-5.65 -27.313,-8.469 -39.508,-8.469 -17.016,0 -25.503,4.69 -25.503,14.091 0,3.514 1.711,6.38 5.147,8.602 2.73,1.729 10.656,5.529 23.778,11.406 18.442,8.253 30.787,15.427 37.005,21.529 7.325,7.238 10.98,16.604 10.98,28.084 0,16.501 -7.135,29.088 -21.406,37.761 -11.689,7.033 -26.796,10.535 -45.301,10.535 -15.647,0.001 -31.402,-1.84 -47.246,-5.54 z"
   id="path17"
   inkscape:connector-curvature="0" />
	</g>
</g>
</svg>