<?xml version="1.0" encoding="UTF-8" standalone="no"?>
<svg
   xmlns:dc="http://purl.org/dc/elements/1.1/"
   xmlns:cc="http://creativecommons.org/ns#"
   xmlns:rdf="http://www.w3.org/1999/02/22-rdf-syntax-ns#"
   xmlns:svg="http://www.w3.org/2000/svg"
   xmlns="http://www.w3.org/2000/svg"
   xmlns:sodipodi="http://sodipodi.sourceforge.net/DTD/sodipodi-0.dtd"
   xmlns:inkscape="http://www.inkscape.org/namespaces/inkscape"
   style="enable-background:new 0 0 512.257 512.257"
   version="1.1"
   viewBox="0 0 512.26 512.26"
   xml:space="preserve"
   id="svg16"
   sodipodi:docname="coaty-xmas-hat.svg"
   inkscape:version="0.92.3 (2405546, 2018-03-11)"><defs
   id="defs20" /><sodipodi:namedview
   pagecolor="#ffffff"
   bordercolor="#666666"
   borderopacity="1"
   objecttolerance="10"
   gridtolerance="10"
   guidetolerance="10"
   inkscape:pageopacity="0"
   inkscape:pageshadow="2"
   inkscape:window-width="1920"
   inkscape:window-height="1137"
   id="namedview18"
   showgrid="false"
   inkscape:zoom="0.46070354"
   inkscape:cx="-14.108856"
   inkscape:cy="256.13"
   inkscape:window-x="-8"
   inkscape:window-y="-8"
   inkscape:window-maximized="1"
   inkscape:current-layer="svg16" /><metadata
   id="metadata2"><rdf:RDF><cc:Work
       rdf:about=""><dc:format>image/svg+xml</dc:format><dc:type
         rdf:resource="http://purl.org/dc/dcmitype/StillImage" /><dc:title></dc:title></cc:Work></rdf:RDF></metadata>
<path
   d="m159.61 0.26562c-22.228 26.674-47.582 51.222-63.797 82.309-6.2926 12.08-15.363 23.574-19.658 36.166 12.945 6.166 25.143 15.426 34.637 27.18 6.2917 13.173 7.2614 29.234 10.867 43.659 12.91 65.036 29.714 129.21 44.847 193.74 12.042-13.568 23.966-28.255 39.747-38.867 33.866-27.391 65.74-57.276 95.952-88.623 24.065-30.433 54.899-54.243 84.66-78.738 12.193-5.5308 30.481-0.3285 38.829-11.284 5.6139-20.539-18.401-35.198-26.498-52.796-21.3-30.252-46.77-57.437-73.891-82.489-16.284-12.487-31.8-29.514-53.066-17.03-18.959 9.1442-37.163 0.67538-55.01-6.6032-18.775-4.6179-38.498-4.009-57.62-6.624z"
   style="fill:#f4231a"
   id="path4" /><path
   d="m159.61 0.26562-8.3779 10.687c-15.562 18.528-24.328 26.491-39.351 45.426-12.64 19.681-24.202 40.15-35.848 60.354-0.72001 6.0055 7.4622 6.5363 11.439 8.0918 10.131 5.0498 16.491 15.167 24.867 22.502 6.5405 24.797 10.413 50.225 16.193 75.211 11.702 53.815 25.374 107.17 37.973 160.78 8.4946-3.0945 27.732-16.401 34.756-21.348 22.625-19.498 55.456-24.185 76.947-45.005 19.721-18.993 27.462-31.319 45.012-52.423 37.269-5.9574 30.183-35.268 46.1-48.237 11.434-9.2502 19.125-24.903 30.731-33.721 11.386-3.0284 28.818-0.88195 40.34-2.9904 5.8224-3.0376-23.302-34.884-21.318-40.076-21.606-31.984-33.982-49.314-61.437-76.709-13.019-13.476-25.135-28.039-40.797-38.631-7.2974-5.4198-21.337-5.1467-28.459-10.8-15.152 3.3648-23.727 2.5642-38.869 5.0992-16.103-4.1176-30.628-13.816-47.598-14.271-14.076-1.5802-28.232-2.3163-42.305-3.9414z"
   style="fill:#f4231a"
   id="path6" />
<g
   transform="matrix(4.7307 0 0 4.7307 2.8034 118.94)"
   id="g12"><rect
     x="7"
     y="6"
     width="17"
     height="20"
     style="fill:#fff"
     id="rect8" /><path
     d="m16 0a16 16 0 0 0-16 16 16 16 0 0 0 16 16 16 16 0 0 0 16-16 16 16 0 0 0-16-16zm0.67383 7.4609c1.6094 0 3.2461 0.32812 4.9102 0.98438v4.6406h-2.8359l-0.19922-2.3672c-0.57812-0.21875-1.168-0.32812-1.7695-0.32812-1.3672 0-2.4219 0.49609-3.1641 1.4883-0.78125 1.0547-1.1719 2.4375-1.1719 4.1484 0 1.9766 0.50781 3.4766 1.5234 4.5 0.78906 0.79687 1.8242 1.1953 3.1055 1.1953 0.80469 0 1.5742-0.16016 2.3086-0.48047 0.40625-0.17188 0.90234-0.4375 1.4883-0.79688l1.0781 2.9883c-0.71094 0.35937-1.3008 0.61328-1.7695 0.76172-0.9375 0.30469-2.0586 0.45703-3.3633 0.45703-1.5859 0-2.9023-0.23438-3.9492-0.70312-1.4531-0.64844-2.5508-1.6836-3.293-3.1055-0.66406-1.2656-0.99609-2.8164-0.99609-4.6523 0-3.0781 0.92188-5.4102 2.7656-6.9961 1.3438-1.1562 3.1211-1.7344 5.332-1.7344z"
     style="fill:#ff8c00"
     id="path10" /></g><path
   d="M 491.37119,176.28585 C 457.64819,143.04985 414.082,164.694 380.18,197.752 c -5.7508,5.1686 -63.118,77.451 -75.803,88.129 -48.535,55.27 -110.33,58.216 -135.87,95.439 -33.991,33.25 -20.713,59.62 13.005,93.14 33.718,33.519 43.552,29.342 91.829,9.2786 7.373,-7.2123 38.646,-69.08349 42.985,-78.38749 30.278,-36.7 38.65847,-44.85485 78.36347,-71.41685 22.121,-14.753 68.60353,-13.42566 86.92753,-32.58266 33.752,-33.426 43.55099,-91.68675 9.75419,-125.06575 z"
   style="fill:#fffeff;fill-opacity:1"
   id="path14"
   inkscape:connector-curvature="0"
   sodipodi:nodetypes="cccccccccc" /></svg>