<?xml version="1.0" encoding="UTF-8"?>
<svg width="665.28" height="640.96" version="1.1" viewBox="0 0 665.28 640.96" xml:space="preserve" xmlns="http://www.w3.org/2000/svg" xmlns:cc="http://creativecommons.org/ns#" xmlns:dc="http://purl.org/dc/elements/1.1/" xmlns:rdf="http://www.w3.org/1999/02/22-rdf-syntax-ns#"><metadata><rdf:RDF><cc:Work rdf:about=""><dc:format>image/svg+xml</dc:format><dc:type rdf:resource="http://purl.org/dc/dcmitype/StillImage"/><dc:title/></cc:Work></rdf:RDF></metadata><defs><clipPath id="b"><path d="m3.0518e-5 540h720v-540l-720-6.103e-5" style="clip-rule:evenodd"/></clipPath><clipPath id="a"><path d="m4.5776e-5 540h720v-540h-720" style="clip-rule:evenodd"/></clipPath></defs><g transform="matrix(1.3333 0 0 -1.3333 -79.36 696)"><path d="m98.64 335.29 52.43 90.52 90.8 52.27h104.86l90.8-52.27 52.43-90.52v-104.54l-52.43-90.52-90.8-52.27h-104.86l-90.8 52.27-52.43 90.52z" style="fill:none;stroke-miterlimit:10;stroke-width:.48;stroke:#555f69"/><path d="m153.93 424.7 333.74-192.07-0.49-0.86-333.75 192.06zm-0.88-3.54-1.97 4.6 4.96 0.61zm335-185.86 1.97-4.6-4.96-0.6z" style="fill-opacity:.49804;fill:#3c464b"/><path d="m243.86 475.73 192.68-332.65-0.86-0.5-192.69 332.65zm-2.53-2.61 0.59 4.96 4.6-1.96zm196.87-327.92-0.59-4.97-4.6 1.96z" style="fill-opacity:.49804;fill:#3c464b"/><path d="m347.3 475.08v-384.11h-1v384.11zm-3.5-1 3 4 3-4zm6-382.11-3-4-3 4z" style="fill-opacity:.49804;fill:#3c464b"/><path d="m435.68 423.41-192.69-332.65 0.86-0.501 192.69 332.65zm2.52-2.61-0.59 4.96-4.6-1.96zm-196.87-327.92 0.59-4.965 4.6 1.958z" style="fill-opacity:.49804;fill:#3c464b"/><path d="m487.17 334.22-333.74-192.07 0.5-0.87 333.74 192.07zm0.88-3.54 1.97 4.6-4.96 0.61zm-335-185.86-1.97-4.6 4.96-0.6z" style="fill-opacity:.49804;fill:#3c464b"/><path d="m487.02 231.26h-385.38v-1h385.38zm-1-3.5 4 3-4 3zm-383.38 6-4-3 4-3z" style="fill-opacity:.49804;fill:#3c464b"/><path d="m487 231.03-385.59 102.99 0.25 0.97 385.6-102.99zm-0.07 3.64 3.09-3.93-4.64-1.86zm-385.2 96.68-3.09 3.93 4.64 1.87z" style="fill-opacity:.49804;fill:#3c464b"/><path d="m74.16 122.05c0 5.5 3.056 10.38 7.335 12.82 0 11.6 9.78 21.37 22.005 21.37 7.95 0 14.67-4.27 18.95-10.38 1.22 0.61 2.44 0.61 4.28 0.61 6.72 0 12.83-4.27 14.67-10.38 6.72-1.83 11-7.32 11-14.04 0-7.93-6.72-14.65-14.67-14.65h-48.9c-7.946 0-14.67 6.72-14.67 14.65z" style="fill-rule:evenodd;fill:#3c464b"/><path d="m84 426.9 30.36-18.18v36.54l-30.36 18.18z" style="fill-rule:evenodd;fill:#3c464b"/><path d="m117.12 445.26v-36.54l30.36 18.18v36.54z" style="fill-rule:evenodd;fill:#3c464b"/><path d="m86.16 465.3 29.58-17.7 29.58 17.7-29.58 17.7z" style="fill-rule:evenodd;fill:#3c464b"/><path d="m558.48 334.5-30.48-18.18v36.54l30.48 18.18z" style="fill-rule:evenodd;fill:#3c464b"/><path d="m525.36 352.86v-36.54l-30.48 18.18v36.54z" style="fill-rule:evenodd;fill:#3c464b"/><path d="m556.32 372.84-29.64-17.64-29.64 17.64 29.64 17.64z" style="fill-rule:evenodd;fill:#3c464b"/><path d="m333.48 51.529 17.16-10.249v20.591l-17.16 10.249z" style="fill-rule:evenodd;fill:#3c464b"/><path d="m352.08 61.871v-20.591l17.16 10.249v20.591z" style="fill-rule:evenodd;fill:#3c464b"/><path d="m334.68 73.08 16.68-9.96 16.68 9.96-16.68 9.96z" style="fill-rule:evenodd;fill:#3c464b"/><path d="m220.92 490.37 17.16-10.25v20.59l-17.16 10.25z" style="fill-rule:evenodd;fill:#3c464b"/><path d="m239.64 500.71v-20.59l17.16 10.25v20.59z" style="fill-rule:evenodd;fill:#3c464b"/><path d="m222.12 512.04 16.68-9.96 16.68 9.96-16.68 9.96z" style="fill-rule:evenodd;fill:#3c464b"/><path d="m59.52 334.37 17.16-10.25v20.59l-17.16 10.25z" style="fill-rule:evenodd;fill:#3c464b"/><path d="m78.12 344.71v-20.59l17.16 10.25v20.59z" style="fill-rule:evenodd;fill:#3c464b"/><path d="m60.72 355.92 16.68-9.96 16.68 9.96-16.68 9.96z" style="fill-rule:evenodd;fill:#3c464b"/><path d="m499.8 212.45 17.16-10.25v20.59l-17.16 10.25z" style="fill-rule:evenodd;fill:#3c464b"/><path d="m519 222.79v-20.59l17.04 10.25v20.59z" style="fill-rule:evenodd;fill:#3c464b"/><path d="m501 234 16.68-9.96 16.68 9.96-16.68 9.96z" style="fill-rule:evenodd;fill:#3c464b"/><path d="m69.24 226.92c0 6.76 5.48 12.24 12.24 12.24s12.24-5.48 12.24-12.24-5.48-12.24-12.24-12.24-12.24 5.48-12.24 12.24z" style="fill-rule:evenodd;fill:#3c464b"/><path d="m436.2 129.42c0 6.73 5.48 12.18 12.24 12.18s12.24-5.45 12.24-12.18-5.48-12.18-12.24-12.18-12.24 5.45-12.24 12.18z" style="fill-rule:evenodd;fill:#3c464b"/><path d="m149.82 422.99-50.884-189.26 0.966-0.26 50.878 189.26zm3.12-1.87-1.86 4.64-3.94-3.08zm-56.159-185.78 1.859-4.64 3.94 3.09z" style="fill-opacity:.49804;fill:#3c464b"/><path d="m239.96 475.74-140.25-242.14 0.87-0.5 140.24 242.13zm2.52-2.62-0.59 4.96-4.6-1.96zm-144.43-237.4 0.591-4.97 4.6 1.96z" style="fill-opacity:.49804;fill:#3c464b"/><path d="m344.29 476.32-243.88-243.09 0.71-0.71 243.88 243.09zm1.76-3.19 0.72 4.95-4.95-0.7zm-246.7-237.43-0.715-4.95 4.95 0.7z" style="fill-opacity:.49804;fill:#3c464b"/><path d="m434.73 424.7-333.74-192.07 0.5-0.87 333.74 192.07zm0.88-3.54 1.97 4.6-4.96 0.61zm-335-185.86-1.97-4.6 4.96-0.6z" style="fill-opacity:.49804;fill:#3c464b"/><path d="m487 334.99-385.59-102.99 0.26-0.97 385.59 102.99zm-0.07-3.64 3.09 3.93-4.64 1.87zm-385.2-96.68-3.09-3.93 4.64-1.86z" style="fill-opacity:.49804;fill:#3c464b"/><path d="m487.02 230.48-331.25-87.62 0.26-0.96 331.25 87.61zm-0.07-3.64 3.1 3.92-4.63 1.88zm-330.85-81.3-3.1-3.93 4.63-1.88z" style="fill-opacity:.49804;fill:#3c464b"/><path d="m435.14 423.99-280.37-279.96 0.7-0.71 280.38 279.97zm1.76-3.18 0.71 4.95-4.95-0.7zm-283.19-274.31-0.71-4.95 4.95 0.71z" style="fill-opacity:.49804;fill:#3c464b"/><path d="m344.83 475.73-192.68-332.65 0.87-0.5 192.68 332.65zm2.53-2.61-0.59 4.96-4.6-1.96zm-196.87-327.92 0.59-4.97 4.6 1.96z" style="fill-opacity:.49804;fill:#3c464b"/><path d="m243.18 475.32 103.32-384.33-0.97-0.26-103.31 384.33zm-3.12-1.88 1.86 4.64 3.94-3.08zm108.59-380.83-1.85-4.642-3.94 3.084z" style="fill-opacity:.49804;fill:#3c464b"/><path d="m153.02 423.41 192.68-332.65-0.87-0.501-192.68 332.65zm-2.53-2.61 0.59 4.96 4.6-1.96zm196.87-327.92-0.59-4.965-4.6 1.958z" style="fill-opacity:.49804;fill:#3c464b"/><path d="m488.12 332.94-140.25-242.14 0.87-0.501 140.24 242.13zm2.52-2.62-0.59 4.96-4.6-1.96zm-144.43-237.4 0.59-4.965 4.6 1.957z" style="fill-opacity:.49804;fill:#3c464b"/><path d="m242.42 475.08v-384.11h-1v384.11zm-3.5-1 3 4 3-4zm6-382.11-3-4-3 4z" style="fill-opacity:.49804;fill:#3c464b"/><path d="m436.2 443.98c0 5.48 3.07 10.35 7.36 12.79 0 11.57 9.81 21.31 22.07 21.31 7.97 0 14.71-4.26 19.01-10.35 1.22 0.61 2.45 0.61 4.29 0.61 6.74 0 12.87-4.27 14.71-10.36 6.75-1.82 11.04-7.31 11.04-14 0-7.92-6.74-14.62-14.72-14.62h-49.05c-7.97 0-14.71 6.7-14.71 14.62z" style="fill-rule:evenodd;fill:#3c464b"/><path d="m350.04 510.84c0 6.16 5 11.16 11.16 11.16s11.16-5 11.16-11.16-5-11.16-11.16-11.16-11.16 5-11.16 11.16z" style="fill-rule:evenodd;fill:#3c464b"/><g clip-path="url(#b)"><path d="m339.74 484.85c-0.49 7.29 8.72 13.44 20.57 13.74s21.86-5.36 22.35-12.64c0.01-0.14 0.02-0.29 0.02-0.43z" style="fill-rule:evenodd;fill:#3c464b"/></g><path d="m218.4 70.68c0 6.164 5 11.16 11.16 11.16s11.16-4.996 11.16-11.16c0-6.163-5-11.16-11.16-11.16s-11.16 4.997-11.16 11.16z" style="fill-rule:evenodd;fill:#3c464b"/><g clip-path="url(#a)"><path d="m208.1 44.692c-0.49 7.284 8.72 13.434 20.57 13.737 11.85 0.302 21.86-5.357 22.35-12.641 0.01-0.142 0.02-0.284 0.02-0.426z" style="fill-rule:evenodd;fill:#3c464b"/></g></g></svg>
