<?xml version="1.0" encoding="UTF-8"?>
<svg width="477.77" height="372.64" version="1.1" viewBox="0 0 477.77 372.64" xml:space="preserve" xmlns="http://www.w3.org/2000/svg" xmlns:cc="http://creativecommons.org/ns#" xmlns:dc="http://purl.org/dc/elements/1.1/" xmlns:rdf="http://www.w3.org/1999/02/22-rdf-syntax-ns#"><metadata><rdf:RDF><cc:Work rdf:about=""><dc:format>image/svg+xml</dc:format><dc:type rdf:resource="http://purl.org/dc/dcmitype/StillImage"/><dc:title/></cc:Work></rdf:RDF></metadata><defs><clipPath id="f"><path d="m1.0729e-5 0h720v540h-720z" style="clip-rule:evenodd"/></clipPath><clipPath id="e"><path d="m1.0729e-5 0h720v540h-720z" style="clip-rule:evenodd"/></clipPath><clipPath id="d"><path d="m1.0729e-5 0h720v540h-720z" style="clip-rule:evenodd"/></clipPath><clipPath id="c"><path d="m1.0729e-5 0h720v540h-720z" style="clip-rule:evenodd"/></clipPath><clipPath id="b"><path d="m1.0729e-5 0h720v540h-720z" style="clip-rule:evenodd"/></clipPath><clipPath id="a"><path d="m4.5776e-5 540h720v-540l-720-6.103e-5" style="clip-rule:evenodd"/></clipPath></defs><g transform="matrix(1.3333 0 0 -1.3333 -164.31 613.28)"><path d="m314.82 419.81c0 5.44 3.03 10.27 7.28 12.69 0 11.49 9.7 21.16 21.83 21.16 7.89 0 14.56-4.23 18.81-10.28 1.21 0.61 2.42 0.61 4.24 0.61 6.68 0 12.74-4.23 14.56-10.28 6.67-1.81 10.92-7.25 10.92-13.9 0-7.86-6.67-14.51-14.56-14.51h-48.52c-7.89 0-14.56 6.65-14.56 14.51z" style="fill:none;stroke-linejoin:round;stroke-miterlimit:10;stroke-width:2.28;stroke:#aab414"/><path d="m242.76 305.69 19.32-10.73v21.55l-19.32 10.73z" style="fill-rule:evenodd;fill:#4bacc6"/><path d="m263.76 316.51v-21.55l19.32 10.73v21.55z" style="fill-rule:evenodd;fill:#4bacc6"/><path d="m244.2 328.26 18.72-10.38 18.72 10.38-18.72 10.38z" style="fill-rule:evenodd;fill:#4bacc6"/><path d="m285.96 233.78 11.04-6.02v12.1l-11.04 6.02z" style="fill-rule:evenodd;fill:#505a64"/><path d="m297.96 239.86v-12.1l11.04 6.02v12.1z" style="fill-rule:evenodd;fill:#505a64"/><path d="m286.68 246.48 10.74-5.88 10.74 5.88-10.74 5.88z" style="fill-rule:evenodd;fill:#505a64"/><path d="m426.96 305.69-19.32-10.73v21.55l19.32 10.73z" style="fill-rule:evenodd;fill:#4bacc6"/><path d="m405.96 316.51v-21.55l-19.32 10.73v21.55z" style="fill-rule:evenodd;fill:#4bacc6"/><path d="m425.52 328.26-18.78-10.38-18.78 10.38 18.78 10.38z" style="fill-rule:evenodd;fill:#4bacc6"/><path d="m380.88 233.78-11.04-6.02v12.1l11.04 6.02z" style="fill-rule:evenodd;fill:#505a64"/><path d="m368.88 239.86v-12.1l-11.04 6.02v12.1z" style="fill-rule:evenodd;fill:#505a64"/><path d="m380.04 246.48-10.68-5.88-10.68 5.88 10.68 5.88z" style="fill-rule:evenodd;fill:#505a64"/><path d="m329.04 291.3 11.04-6.06v12.18l-11.04 6.06z" style="fill-rule:evenodd;fill:#aab414"/><path d="m341.04 297.42v-12.18l11.04 6.06v12.18z" style="fill-rule:evenodd;fill:#aab414"/><path d="m329.88 304.08 10.74-5.88 10.74 5.88-10.74 5.88z" style="fill-rule:evenodd;fill:#aab414"/><path d="m291.98 327.42 31.8 12.24-0.56 1.45-31.8-12.23zm-0.42 3.89-2.66-4.23 4.81-1.37zm32.08 5.91 2.66 4.24-4.81 1.36z" style="fill:#505a64"/><path d="m329.04 334.46 11.04-6.02v12.1l-11.04 6.02z" style="fill-rule:evenodd;fill:#aab414"/><path d="m341.04 340.54v-12.1l11.04 6.02v12.1z" style="fill-rule:evenodd;fill:#aab414"/><path d="m329.88 347.16 10.74-5.88 10.74 5.88-10.74 5.88z" style="fill-rule:evenodd;fill:#aab414"/><path d="m380.76 327.72-23.41 11.7 0.7 1.4 23.4-11.71zm0.79 3.83 2.24-4.47-4.92-0.9zm-24.29 5.44-2.24 4.47 4.92 0.89z" style="fill:#505a64"/><path d="m341.4 393.18v-34.28h-1.56v34.28zm-3.78-1 3 4 3-4zm6-32.28-3-4-3 4z" style="fill:#505a64"/><path d="m268.61 345.82 53.08 47.77-1.04 1.16-53.08-47.77zm-1.78 3.48-0.97-4.9 4.98 0.44zm55.6 41.97 0.97 4.91-4.98-0.45z" style="fill:#505a64"/><path d="m405.02 346.91-17.96 46.19 1.45 0.57 17.97-46.19zm3.16 2.3-1.34-4.81-4.25 2.64zm-22.83 42.15 1.35 4.82 4.25-2.64z" style="fill:#505a64"/><path d="m213.96 232.06 11.04-6.58v13.22l-11.04 6.58z" style="fill-rule:evenodd;fill:#505a64"/><path d="m225.96 238.7v-13.22l11.04 6.58v13.22z" style="fill-rule:evenodd;fill:#505a64"/><path d="m214.8 245.94 10.74-6.42 10.74 6.42-10.74 6.42z" style="fill-rule:evenodd;fill:#505a64"/><path d="m429.72 233.78 10.92-6.02v12.1l-10.92 6.02z" style="fill-rule:evenodd;fill:#505a64"/><path d="m441.96 239.86v-12.1l10.8 6.02v12.1z" style="fill-rule:evenodd;fill:#505a64"/><path d="m430.56 246.48 10.56-5.88 10.56 5.88-10.56 5.88z" style="fill-rule:evenodd;fill:#505a64"/><path d="m374.9 256.9 27.59 30.1-1.15 1.06-27.59-30.1zm-2.11 3.29-0.49-4.97 4.91 0.92zm30.66 24.57 0.5 4.98-4.92-0.92z" style="fill:#505a64"/><path d="m368.64 261.09v132.09h1.56v-132.09zm3.78 1-3-4-3 4zm-6 130.09 3 4 3-4z" style="fill:#505a64"/><path d="m358.08 300.79 22.8 2.28-0.15 1.55-22.8-2.28zm0.62 3.86-3.68-3.39 4.28-2.58zm21.41-3.89 3.68 3.38-4.28 2.59z" style="fill:#505a64"/><path d="m231.02 256.9 27.59 30.1-1.15 1.06-27.59-30.1zm-2.11 3.29-0.49-4.97 4.91 0.92zm30.66 24.57 0.5 4.98-4.92-0.92z" style="fill:#505a64"/><path d="m435.99 257.02-24.93 29.92 1.2 0.99 24.93-29.91zm2.26 3.19 0.26-4.99-4.87 1.15zm-28.25 24.54-0.26 4.99 4.87-1.15z" style="fill:#505a64"/><path d="m349.2 187.68c0 3.98 3.22 7.2 7.2 7.2s7.2-3.22 7.2-7.2-3.22-7.2-7.2-7.2-7.2 3.22-7.2 7.2z" style="fill-rule:evenodd;fill:#7d2d1e"/><path d="m378 187.68c0 3.98 3.22 7.2 7.2 7.2s7.2-3.22 7.2-7.2-3.22-7.2-7.2-7.2-7.2 3.22-7.2 7.2z" style="fill-rule:evenodd;fill:#7d2d1e"/><path d="m409.68 187.68c0 3.98 3.22 7.2 7.2 7.2s7.2-3.22 7.2-7.2-3.22-7.2-7.2-7.2-7.2 3.22-7.2 7.2z" style="fill-rule:evenodd;fill:#7d2d1e"/><path d="m438.36 187.68c0 3.98 3.22 7.2 7.2 7.2s7.2-3.22 7.2-7.2-3.22-7.2-7.2-7.2-7.2 3.22-7.2 7.2z" style="fill-rule:evenodd;fill:#7d2d1e"/><path d="m467.16 187.68c0 3.98 3.22 7.2 7.2 7.2s7.2-3.22 7.2-7.2-3.22-7.2-7.2-7.2-7.2 3.22-7.2 7.2z" style="fill-rule:evenodd;fill:#7d2d1e"/><path d="m423.57 199.67 13.94 20.9-1.3 0.87-13.94-20.9zm-2.59 2.93 0.28-4.99 4.71 1.66zm17.82 15.91-0.28 4.99-4.71-1.66z" style="fill:#505a64"/><path d="m467.77 199.67-13.93 20.9 1.29 0.87 13.94-20.9zm2.59 2.93-0.28-4.99-4.71 1.66zm-17.82 15.91 0.28 4.99 4.71-1.66z" style="fill:#505a64"/><path d="m444.96 200.61v19.89h-1.56v-19.89zm-3.78 1 3-4 3 4zm6 17.89-3 4-3-4z" style="fill:#505a64"/><path d="m382.12 200.21-6.73 20.2 1.48 0.49 6.73-20.2zm3.27 2.14-1.58-4.74-4.11 2.84zm-11.79 16.41 1.58 4.74 4.11-2.85z" style="fill:#505a64"/><path d="m359.59 200.21 6.73 20.2-1.48 0.49-6.73-20.2zm-3.27 2.14 1.58-4.74 4.11 2.84zm11.79 16.41-1.58 4.74-4.11-2.85z" style="fill:#505a64"/><path d="m188.16 187.68c0 3.98 3.22 7.2 7.2 7.2s7.2-3.22 7.2-7.2-3.22-7.2-7.2-7.2-7.2 3.22-7.2 7.2z" style="fill-rule:evenodd;fill:#7d2d1e"/><path d="m216.84 187.68c0 3.98 3.22 7.2 7.2 7.2s7.2-3.22 7.2-7.2-3.22-7.2-7.2-7.2-7.2 3.22-7.2 7.2z" style="fill-rule:evenodd;fill:#7d2d1e"/><path d="m245.64 187.68c0 3.98 3.22 7.2 7.2 7.2s7.2-3.22 7.2-7.2-3.22-7.2-7.2-7.2-7.2 3.22-7.2 7.2z" style="fill-rule:evenodd;fill:#7d2d1e"/><path d="m202.05 199.67 13.94 20.9-1.3 0.87-13.93-20.9zm-2.59 2.93 0.28-4.99 4.71 1.66zm17.82 15.91-0.28 4.99-4.71-1.66z" style="fill:#505a64"/><path d="m249.13 199.67-13.93 20.9 1.29 0.87 13.94-20.9zm2.59 2.93-0.28-4.99-4.71 1.66zm-17.82 15.91 0.28 4.99 4.71-1.66z" style="fill:#505a64"/><path d="m226.32 200.61v19.89h-1.56v-19.89zm-3.78 1 3-4 3 4zm6 17.89-3 4-3-4z" style="fill:#505a64"/><path d="m277.32 187.68c0 3.98 3.22 7.2 7.2 7.2s7.2-3.22 7.2-7.2-3.22-7.2-7.2-7.2-7.2 3.22-7.2 7.2z" style="fill-rule:evenodd;fill:#7d2d1e"/><path d="m306.12 187.68c0 3.98 3.2 7.2 7.14 7.2s7.14-3.22 7.14-7.2-3.2-7.2-7.14-7.2-7.14 3.22-7.14 7.2z" style="fill-rule:evenodd;fill:#7d2d1e"/><path d="m310.24 200.21-6.73 20.2 1.48 0.49 6.73-20.2zm3.27 2.14-1.58-4.74-4.11 2.84zm-11.79 16.41 1.58 4.74 4.11-2.85z" style="fill:#505a64"/><path d="m287.71 200.21 6.73 20.2-1.48 0.49-6.73-20.2zm-3.27 2.14 1.58-4.74 4.11 2.84zm11.79 16.41-1.58 4.74-4.11-2.85z" style="fill:#505a64"/><path d="m291.95 304.69 31.42-2.42-0.12-1.55-31.42 2.41zm0.71-3.85-3.76 3.3 4.22 2.68zm29.88 3.72 3.76-3.3-4.22-2.68z" style="fill:#505a64"/><path d="m256.15 240.56 22.52-0.32-0.02-1.56-22.52 0.32zm0.95-3.8-3.96 3.06 4.04 2.94zm20.6 5.72 3.96-3.06-4.04-2.94z" style="fill:#505a64"/><path d="m292.11 257.02-24.93 29.92 1.2 0.99 24.93-29.91zm2.26 3.19 0.26-4.99-4.87 1.15zm-28.25 24.54-0.26 4.99 4.87-1.15z" style="fill:#505a64"/><g clip-path="url(#f)"><g transform="matrix(1,0,0,-1,123.12,241.8)" style="fill:#3c464b" aria-label="Gateway"><path d="m6.4969-0.50531q-1.1138 0.62906-2.475 0.62906-1.583 0-2.5627-1.0209-0.97453-1.0209-0.97453-2.7019 0-1.717 1.0828-2.8153 1.088-1.1034 2.7534-1.1034 1.2066 0 2.0264 0.39188v0.95906q-0.89719-0.56719-2.1244-0.56719-1.2427 0-2.0367 0.85594-0.79406 0.85594-0.79406 2.2172 0 1.4025 0.73734 2.2069 0.73734 0.79922 2.0006 0.79922 0.86625 0 1.5005-0.34547v-2.0728h-1.6191v-0.78375h2.4853z"/><path d="m11.837 0h-0.84562v-0.825h-0.02062q-0.55172 0.94875-1.6242 0.94875-0.78891 0-1.2375-0.41766-0.44344-0.41766-0.44344-1.1086 0-1.4798 1.7428-1.7222l1.583-0.22172q0-1.3458-1.088-1.3458-0.95391 0-1.7222 0.64969v-0.86625q0.77859-0.495 1.7944-0.495 1.8614 0 1.8614 1.9697zm-0.84562-2.6709-1.2736 0.17531q-0.58781 0.0825-0.88688 0.29391-0.29906 0.20625-0.29906 0.73734 0 0.38672 0.27328 0.63422 0.27844 0.24234 0.73734 0.24234 0.62906 0 1.0364-0.43828 0.4125-0.44344 0.4125-1.1189z"/><path d="m15.882-0.051562q-0.29906 0.165-0.78891 0.165-1.387 0-1.387-1.5469v-3.1247h-0.9075v-0.72188h0.9075v-1.2891l0.84562-0.27328v1.5623h1.3303v0.72188h-1.3303v2.9752q0 0.53109 0.18047 0.75797 0.18047 0.22688 0.59812 0.22688 0.31969 0 0.55172-0.17531z"/><path d="m21.288-2.4286h-3.728q0.02062 0.88172 0.47438 1.3612 0.45375 0.47953 1.2478 0.47953 0.89203 0 1.6397-0.58781v0.79406q-0.69609 0.50531-1.8408 0.50531-1.1189 0-1.7583-0.71672-0.63938-0.72188-0.63938-2.0264 0-1.2323 0.69609-2.0058 0.70125-0.77859 1.7377-0.77859 1.0364 0 1.6036 0.67031 0.56719 0.67031 0.56719 1.8614zm-0.86625-0.71672q-0.0052-0.73219-0.35578-1.1395-0.34547-0.40734-0.96422-0.40734-0.59812 0-1.0158 0.42797-0.41766 0.42797-0.51562 1.1189z"/><path d="m29.219-5.28-1.583 5.28h-0.87656l-1.088-3.7795q-0.06188-0.21656-0.0825-0.48984h-0.02063q-0.01547 0.18562-0.10828 0.47953l-1.1808 3.7898h-0.84563l-1.5984-5.28h0.88688l1.0931 3.9703q0.05156 0.18047 0.07219 0.47438h0.04125q0.01547-0.22687 0.09281-0.48469l1.2169-3.96h0.77344l1.0931 3.9806q0.05156 0.19078 0.07734 0.47438h0.04125q0.01031-0.20109 0.08766-0.47438l1.0725-3.9806z"/><path d="m34.013 0h-0.84562v-0.825h-0.02062q-0.55172 0.94875-1.6242 0.94875-0.78891 0-1.2375-0.41766-0.44344-0.41766-0.44344-1.1086 0-1.4798 1.7428-1.7222l1.583-0.22172q0-1.3458-1.088-1.3458-0.95391 0-1.7222 0.64969v-0.86625q0.77859-0.495 1.7944-0.495 1.8614 0 1.8614 1.9697zm-0.84562-2.6709-1.2736 0.17531q-0.58781 0.0825-0.88688 0.29391-0.29906 0.20625-0.29906 0.73734 0 0.38672 0.27328 0.63422 0.27844 0.24234 0.73734 0.24234 0.62906 0 1.0364-0.43828 0.4125-0.44344 0.4125-1.1189z"/><path d="m39.811-5.28-2.4286 6.1256q-0.64969 1.6397-1.8253 1.6397-0.33 0-0.55172-0.067031v-0.75797q0.27328 0.092813 0.50016 0.092813 0.63938 0 0.95906-0.76313l0.42281-1.0003-2.0625-5.2697h0.93844l1.4283 4.0631q0.02578 0.077344 0.10828 0.40219h0.03094q0.02578-0.12375 0.10312-0.39187l1.5005-4.0734z"/></g>
</g><g clip-path="url(#e)"><g transform="matrix(1,0,0,-1,123.12,184.25)" style="fill:#3c464b" aria-label="Thing"><path d="m5.3419-6.6103h-2.1347v6.6103h-0.86625v-6.6103h-2.1295v-0.78375h5.1305z"/><path d="m10.772 0h-0.84562v-3.0422q0-1.65-1.2272-1.65-0.61875 0-1.0416 0.47953-0.42281 0.47438-0.42281 1.222v2.9906h-0.84563v-7.8169h0.84563v3.4134h0.020625q0.60844-1.0003 1.7325-1.0003 1.7841 0 1.7841 2.1502z"/><path d="m12.799-6.6206q-0.22688 0-0.38672-0.15469-0.15984-0.15469-0.15984-0.39188t0.15984-0.39188q0.15984-0.15984 0.38672-0.15984 0.23203 0 0.39188 0.15984 0.165 0.15469 0.165 0.39188 0 0.22688-0.165 0.38672-0.15984 0.15984-0.39188 0.15984zm0.4125 6.6206h-0.84562v-5.28h0.84562z"/><path d="m19.305 0h-0.84562v-3.0113q0-1.6809-1.2272-1.6809-0.63422 0-1.0519 0.47953-0.4125 0.47438-0.4125 1.2014v3.0113h-0.84562v-5.28h0.84562v0.87656h0.02063q0.59812-1.0003 1.7325-1.0003 0.86625 0 1.3252 0.56203 0.45891 0.55688 0.45891 1.6139z"/><path d="m25.405-0.42281q0 2.9081-2.7844 2.9081-0.97969 0-1.7119-0.37125v-0.84562q0.89203 0.495 1.7016 0.495 1.9491 0 1.9491-2.0728v-0.5775h-0.02063q-0.60328 1.0106-1.815 1.0106-0.98484 0-1.5881-0.70125-0.59812-0.70641-0.59812-1.8923 0-1.3458 0.64453-2.1398 0.64969-0.79406 1.7738-0.79406 1.0673 0 1.583 0.85594h0.02063v-0.73219h0.84562zm-0.84562-1.9645v-0.77859q0-0.62906-0.42797-1.0777-0.42281-0.44859-1.057-0.44859-0.78375 0-1.2272 0.57234-0.44344 0.56719-0.44344 1.5933 0 0.88172 0.42281 1.4128 0.42797 0.52594 1.1292 0.52594 0.71156 0 1.155-0.50531 0.44859-0.50531 0.44859-1.2942z"/></g>
</g><g clip-path="url(#d)"><g transform="matrix(1,0,0,-1,123.12,313.73)" style="fill:#3c464b" aria-label="Edge"><path d="m4.8881 0h-3.9188v-7.3941h3.7538v0.78375h-2.8875v2.4595h2.6709v0.77859h-2.6709v2.5884h3.0525z"/><path d="m10.748 0h-0.84562v-0.89719h-0.020625q-0.58781 1.0209-1.815 1.0209-0.99516 0-1.5933-0.70641-0.59297-0.71156-0.59297-1.9336 0-1.3097 0.66-2.0986 0.66-0.78891 1.7583-0.78891 1.088 0 1.583 0.85594h0.020625v-3.2691h0.84562zm-0.84562-2.3873v-0.77859q0-0.63938-0.42281-1.0828-0.42281-0.44344-1.0725-0.44344-0.77344 0-1.2169 0.56719-0.44344 0.56719-0.44344 1.5675 0 0.91266 0.42281 1.4438 0.42797 0.52594 1.1447 0.52594 0.70641 0 1.1447-0.51047 0.44344-0.51047 0.44344-1.2891z"/><path d="m16.968-0.42281q0 2.9081-2.7844 2.9081-0.97969 0-1.7119-0.37125v-0.84562q0.89203 0.495 1.7016 0.495 1.9491 0 1.9491-2.0728v-0.5775h-0.020625q-0.60328 1.0106-1.815 1.0106-0.98484 0-1.5881-0.70125-0.59812-0.70641-0.59812-1.8923 0-1.3458 0.64453-2.1398 0.64969-0.79406 1.7738-0.79406 1.0673 0 1.583 0.85594h0.02062v-0.73219h0.84563zm-0.84562-1.9645v-0.77859q0-0.62906-0.42797-1.0777-0.42281-0.44859-1.057-0.44859-0.78375 0-1.2272 0.57234-0.44344 0.56719-0.44344 1.5933 0 0.88172 0.42281 1.4128 0.42797 0.52594 1.1292 0.52594 0.71156 0 1.155-0.50531 0.44859-0.50531 0.44859-1.2942z"/><path d="m22.956-2.4286h-3.728q0.02063 0.88172 0.47438 1.3612 0.45375 0.47953 1.2478 0.47953 0.89203 0 1.6397-0.58781v0.79406q-0.69609 0.50531-1.8408 0.50531-1.1189 0-1.7583-0.71672-0.63938-0.72188-0.63938-2.0264 0-1.2323 0.69609-2.0058 0.70125-0.77859 1.7377-0.77859 1.0364 0 1.6036 0.67031 0.56719 0.67031 0.56719 1.8614zm-0.86625-0.71672q-0.0052-0.73219-0.35578-1.1395-0.34547-0.40734-0.96422-0.40734-0.59812 0-1.0158 0.42797-0.41766 0.42797-0.51562 1.1189z"/></g>
</g><g clip-path="url(#c)"><g transform="matrix(1,0,0,-1,123.12,414.46)" style="fill:#3c464b" aria-label="Cloud"><path d="m6.0155-0.31008q-0.82171 0.43411-2.0465 0.43411-1.5814 0-2.5323-1.0181-0.95091-1.0181-0.95091-2.6718 0-1.7778 1.0698-2.8734 1.0698-1.0956 2.7132-1.0956 1.0543 0 1.7468 0.30491v0.92507q-0.79587-0.44445-1.7571-0.44445-1.2765 0-2.0724 0.85271-0.7907 0.85271-0.7907 2.2791 0 1.354 0.73902 2.1602 0.74419 0.80104 1.9483 0.80104 1.1163 0 1.9328-0.49612z"/><path d="m8.1828 0h-0.84755v-7.8346h0.84755z"/><path d="m12.066 0.12403q-1.1731 0-1.876-0.73902-0.69768-0.74419-0.69768-1.969 0-1.3333 0.72868-2.0827 0.72868-0.74936 1.969-0.74936 1.1835 0 1.845 0.72868 0.66667 0.72868 0.66667 2.0207 0 1.2662-0.71835 2.031-0.71318 0.75969-1.9173 0.75969zm0.06202-4.8269q-0.81654 0-1.292 0.55814-0.47545 0.55297-0.47545 1.5297 0 0.94057 0.48062 1.4832 0.48062 0.54264 1.2868 0.54264 0.82171 0 1.261-0.5323 0.44444-0.5323 0.44444-1.5142 0-0.99225-0.44444-1.5297-0.43928-0.53747-1.261-0.53747z"/><path d="m20.367 0h-0.84755v-0.83721h-0.02067q-0.52713 0.96124-1.6331 0.96124-1.8915 0-1.8915-2.2532v-3.1628h0.84238v3.0284q0 1.6744 1.2817 1.6744 0.62016 0 1.0181-0.45478 0.4031-0.45995 0.4031-1.199v-3.0491h0.84755z"/><path d="m26.596 0h-0.84755v-0.89923h-0.02067q-0.58915 1.0233-1.8191 1.0233-0.99742 0-1.5969-0.70801-0.59432-0.71318-0.59432-1.938 0-1.3127 0.6615-2.1034 0.6615-0.7907 1.7623-0.7907 1.0904 0 1.5866 0.85788h0.02067v-3.2765h0.84755zm-0.84755-2.3928v-0.78036q0-0.64083-0.42377-1.0853-0.42377-0.44445-1.0749-0.44445-0.7752 0-1.2196 0.56848-0.44445 0.56848-0.44445 1.5711 0 0.91473 0.42377 1.447 0.42894 0.52713 1.1473 0.52713 0.70801 0 1.1473-0.51163 0.44444-0.51163 0.44444-1.292z"/></g>
</g><g clip-path="url(#b)"><g transform="matrix(1,0,0,-1,123.12,443.21)" style="fill:#3c464b" aria-label="Application"><path d="m6.6928 0h-0.95906l-0.78375-2.0728h-3.135l-0.73734 2.0728h-0.96422l2.8359-7.3941h0.89719zm-2.0264-2.8514-1.1602-3.1505q-0.056719-0.15469-0.11344-0.495h-0.020625q-0.051563 0.31453-0.11859 0.495l-1.1498 3.1505z"/><path d="m8.5334-0.76313h-0.020625v3.1917h-0.84562v-7.7086h0.84562v0.92812h0.020625q0.62391-1.0519 1.8253-1.0519 1.0209 0 1.5933 0.71156 0.57234 0.70641 0.57234 1.8975 0 1.3252-0.64453 2.1244-0.64453 0.79406-1.7634 0.79406-1.0261 0-1.583-0.88688zm-0.020625-2.1295v0.73734q0 0.65484 0.42281 1.1138 0.42797 0.45375 1.0828 0.45375 0.76828 0 1.2014-0.58781 0.43828-0.58781 0.43828-1.6345 0-0.88172-0.40734-1.3819-0.40734-0.50016-1.1034-0.50016-0.73734 0-1.1859 0.51562-0.44859 0.51047-0.44859 1.2839z"/><path d="m14.795-0.76313h-0.02062v3.1917h-0.84562v-7.7086h0.84562v0.92812h0.02062q0.62391-1.0519 1.8253-1.0519 1.0209 0 1.5933 0.71156 0.57234 0.70641 0.57234 1.8975 0 1.3252-0.64453 2.1244-0.64453 0.79406-1.7634 0.79406-1.0261 0-1.583-0.88688zm-0.02062-2.1295v0.73734q0 0.65484 0.42281 1.1138 0.42797 0.45375 1.0828 0.45375 0.76828 0 1.2014-0.58781 0.43828-0.58781 0.43828-1.6345 0-0.88172-0.40734-1.3819t-1.1034-0.50016q-0.73734 0-1.1859 0.51562-0.44859 0.51047-0.44859 1.2839z"/><path d="m20.984 0h-0.84562v-7.8169h0.84562z"/><path d="m23.127-6.6206q-0.22688 0-0.38672-0.15469t-0.15984-0.39188 0.15984-0.39188q0.15984-0.15984 0.38672-0.15984 0.23203 0 0.39188 0.15984 0.165 0.15469 0.165 0.39188 0 0.22688-0.165 0.38672-0.15984 0.15984-0.39188 0.15984zm0.4125 6.6206h-0.84562v-5.28h0.84562z"/><path d="m28.806-0.24234q-0.60844 0.36609-1.4438 0.36609-1.1292 0-1.8253-0.73219-0.69094-0.73734-0.69094-1.9078 0-1.3045 0.74766-2.0934 0.74766-0.79406 1.9955-0.79406 0.69609 0 1.2272 0.25781v0.86625q-0.58781-0.4125-1.2581-0.4125-0.80953 0-1.3303 0.58266-0.51562 0.5775-0.51562 1.5211 0 0.92812 0.48469 1.4644 0.48984 0.53625 1.3097 0.53625 0.69094 0 1.2994-0.45891z"/><path d="m33.897 0h-0.84562v-0.825h-0.020625q-0.55172 0.94875-1.6242 0.94875-0.78891 0-1.2375-0.41766-0.44344-0.41766-0.44344-1.1086 0-1.4798 1.7428-1.7222l1.583-0.22172q0-1.3458-1.088-1.3458-0.95391 0-1.7222 0.64969v-0.86625q0.77859-0.495 1.7944-0.495 1.8614 0 1.8614 1.9697zm-0.84562-2.6709-1.2736 0.17531q-0.58781 0.0825-0.88688 0.29391-0.29906 0.20625-0.29906 0.73734 0 0.38672 0.27328 0.63422 0.27844 0.24234 0.73734 0.24234 0.62906 0 1.0364-0.43828 0.4125-0.44344 0.4125-1.1189z"/><path d="m37.847-0.051562q-0.29906 0.165-0.78891 0.165-1.387 0-1.387-1.5469v-3.1247h-0.9075v-0.72188h0.9075v-1.2891l0.84562-0.27328v1.5623h1.3303v0.72188h-1.3303v2.9752q0 0.53109 0.18047 0.75797 0.18047 0.22688 0.59812 0.22688 0.31969 0 0.55172-0.17531z"/><path d="m39.411-6.6206q-0.22688 0-0.38672-0.15469t-0.15984-0.39188 0.15984-0.39188q0.15984-0.15984 0.38672-0.15984 0.23203 0 0.39188 0.15984 0.165 0.15469 0.165 0.39188 0 0.22688-0.165 0.38672-0.15984 0.15984-0.39188 0.15984zm0.4125 6.6206h-0.84562v-5.28h0.84562z"/><path d="m43.603 0.12375q-1.1705 0-1.8717-0.73734-0.69609-0.7425-0.69609-1.9645 0-1.3303 0.72703-2.078 0.72703-0.74766 1.9645-0.74766 1.1808 0 1.8408 0.72703 0.66516 0.72703 0.66516 2.0161 0 1.2633-0.71672 2.0264-0.71156 0.75797-1.913 0.75797zm0.06188-4.8159q-0.81469 0-1.2891 0.55688-0.47438 0.55172-0.47438 1.5263 0 0.93844 0.47953 1.4798 0.47953 0.54141 1.2839 0.54141 0.81984 0 1.2581-0.53109 0.44344-0.53109 0.44344-1.5108 0-0.99-0.44344-1.5263-0.43828-0.53625-1.2581-0.53625z"/><path d="m51.903 0h-0.84562v-3.0113q0-1.6809-1.2272-1.6809-0.63422 0-1.0519 0.47953-0.4125 0.47438-0.4125 1.2014v3.0113h-0.84562v-5.28h0.84562v0.87656h0.02063q0.59812-1.0003 1.7325-1.0003 0.86625 0 1.3252 0.56203 0.45891 0.55688 0.45891 1.6139z"/></g>
</g><path d="m227.04 452.88c0 3.91 3.17 7.08 7.08 7.08s7.08-3.17 7.08-7.08-3.17-7.08-7.08-7.08-7.08 3.17-7.08 7.08z" style="fill-rule:evenodd;fill:#50143c"/><g clip-path="url(#a)"><path d="m220.45 436.33c-0.31 4.64 5.55 8.55 13.1 8.74 7.55 0.2 13.92-3.41 14.24-8.04 0-0.09 0.01-0.18 0.01-0.27z" style="fill-rule:evenodd;fill:#50143c"/></g></g></svg>
