<?xml version="1.0" encoding="UTF-8"?>
<svg width="477.77" height="372.48" version="1.1" viewBox="-46.24 0 477.77 372.48" xml:space="preserve" xmlns="http://www.w3.org/2000/svg" xmlns:cc="http://creativecommons.org/ns#" xmlns:dc="http://purl.org/dc/elements/1.1/" xmlns:rdf="http://www.w3.org/1999/02/22-rdf-syntax-ns#"><metadata><rdf:RDF><cc:Work rdf:about=""><dc:format>image/svg+xml</dc:format><dc:type rdf:resource="http://purl.org/dc/dcmitype/StillImage"/><dc:title/></cc:Work></rdf:RDF></metadata><defs><clipPath id="b"><path d="m6.1035e-5 540h720v-540l-720-6.103e-5" style="clip-rule:evenodd"/></clipPath><clipPath id="a"><path d="m3.0518e-5 540h720v-540h-720" style="clip-rule:evenodd"/></clipPath></defs><g transform="matrix(1.3333 0 0 -1.3333 -291.04 554.88)"><path d="m240.96 307.63 30.37 52.6 52.6 30.37h60.74l52.6-30.37 30.37-52.6v-60.74l-30.37-52.6-52.6-30.37h-60.74l-52.6 30.37-30.37 52.6z" style="fill:none;stroke-miterlimit:10;stroke-width:.48;stroke:#879baa"/><path d="m274.17 359.17 191.15-110.36-0.5-0.86-191.15 110.36zm-0.89-3.53-1.96 4.6 4.96 0.6zm192.42-104.16 1.96-4.6-4.96-0.6z" style="fill:#505a64"/><path d="m325.81 388.25 110.36-191.15-0.86-0.5-110.36 191.15zm-2.53-2.61 0.6 4.96 4.6-1.96zm114.56-186.42-0.6-4.96-4.6 1.96z" style="fill:#505a64"/><path d="m385.1 387.6v-220.72h-1v220.72zm-3.5-1 3 4 3-4zm6-218.72-3-4-3 4z" style="fill:#505a64"/><path d="m435.31 357.89-110.36-191.15 0.86-0.5 110.36 191.15zm2.53-2.61-0.6 4.96-4.6-1.96zm-114.56-186.42 0.6-4.96 4.6 1.96z" style="fill:#505a64"/><path d="m464.81 306.49-191.14-110.36 0.5-0.86 191.14 110.36zm0.89-3.53 1.96 4.6-4.96 0.6zm-192.42-104.16-1.96-4.6 4.96-0.6z" style="fill:#505a64"/><path d="m464.68 247.34h-220.72v-1h220.72zm-1-3.5 4 3-4 3zm-218.72 6-4-3 4-3z" style="fill:#505a64"/><path d="m464.65 247.1-220.92 59.2 0.26 0.97 220.92-59.2zm-0.06 3.64 3.09-3.93-4.64-1.86zm-220.54 52.89-3.09 3.93 4.64 1.86z" style="fill:#505a64"/><path d="m226.86 183.64c0 3.18 1.77 6.01 4.24 7.43 0 6.73 5.66 12.39 12.72 12.39 4.6 0 8.49-2.48 10.96-6.02 0.71 0.36 1.42 0.36 2.48 0.36 3.88 0 7.42-2.48 8.48-6.02 3.89-1.06 6.36-4.25 6.36-8.14 0-4.61-3.89-8.5-8.48-8.5h-28.28c-4.59 0-8.48 3.89-8.48 8.5z" style="fill:none;stroke-linejoin:round;stroke-miterlimit:10;stroke-width:2.28;stroke:#aab414"/><path d="m232.44 360.85 17.64-10.57v21.23l-17.64 10.57z" style="fill-rule:evenodd;fill:#4bacc6"/><path d="m251.64 371.51v-21.23l17.64 10.57v21.23z" style="fill-rule:evenodd;fill:#4bacc6"/><path d="m233.64 383.22 17.16-10.26 17.16 10.26-17.16 10.26z" style="fill-rule:evenodd;fill:#4bacc6"/><path d="m507.24 307.17-17.64-10.53v21.15l17.64 10.53z" style="fill-rule:evenodd;fill:#4bacc6"/><path d="m488.16 317.79v-21.15l-17.64 10.53v21.15z" style="fill-rule:evenodd;fill:#4bacc6"/><path d="m506.04 329.46-17.16-10.26-17.16 10.26 17.16 10.26z" style="fill-rule:evenodd;fill:#4bacc6"/><path d="m376.92 142.74 9.96-5.94v11.94l-9.96 5.94z" style="fill-rule:evenodd;fill:#aab414"/><path d="m387.72 148.74v-11.94l9.96 5.94v11.94z" style="fill-rule:evenodd;fill:#aab414"/><path d="m377.64 155.28 9.66-5.76 9.66 5.76-9.66 5.76z" style="fill-rule:evenodd;fill:#aab414"/><path d="m311.76 397.74 9.96-5.94v11.94l-9.96 5.94z" style="fill-rule:evenodd;fill:#aab414"/><path d="m322.56 403.74v-11.94l9.96 5.94v11.94z" style="fill-rule:evenodd;fill:#aab414"/><path d="m312.48 410.34 9.66-5.82 9.66 5.82-9.66 5.82z" style="fill-rule:evenodd;fill:#aab414"/><path d="m218.28 307.06 9.96-5.98v12.02l-9.96 5.98z" style="fill-rule:evenodd;fill:#505a64"/><path d="m229.08 313.1v-12.02l9.96 5.98v12.02z" style="fill-rule:evenodd;fill:#505a64"/><path d="m219 319.62 9.66-5.82 9.66 5.82-9.66 5.82z" style="fill-rule:evenodd;fill:#505a64"/><path d="m473.28 236.22 9.96-5.94v11.94l-9.96 5.94z" style="fill-rule:evenodd;fill:#505a64"/><path d="m484.44 242.22v-11.94l9.84 5.94v11.94z" style="fill-rule:evenodd;fill:#505a64"/><path d="m474 248.76 9.66-5.76 9.66 5.76-9.66 5.76z" style="fill-rule:evenodd;fill:#505a64"/><path d="m223.92 244.68c0 3.91 3.17 7.08 7.08 7.08s7.08-3.17 7.08-7.08-3.17-7.08-7.08-7.08-7.08 3.17-7.08 7.08z" style="fill-rule:evenodd;fill:#7d2d1e"/><path d="m436.44 187.92c0 3.91 3.17 7.08 7.08 7.08s7.08-3.17 7.08-7.08-3.17-7.08-7.08-7.08-7.08 3.17-7.08 7.08z" style="fill-rule:evenodd;fill:#7d2d1e"/><path d="m270.08 357.47-28.83-107.56 0.97-0.26 28.82 107.56zm3.12-1.87-1.86 4.64-3.94-3.09zm-34.1-104.08 1.86-4.64 3.93 3.09z" style="fill:#505a64"/><path d="m322.01 388.25-79.98-138.54 0.86-0.5 79.99 138.54zm2.53-2.61-0.6 4.96-4.59-1.96zm-84.18-133.81 0.6-4.97 4.6 1.97z" style="fill:#505a64"/><path d="m382.22 388.83-139.49-139.49 0.7-0.71 139.5 139.5zm1.77-3.18 0.71 4.95-4.95-0.71zm-142.32-133.84-0.71-4.95 4.95 0.71z" style="fill:#505a64"/><path d="m434.45 359.17-191.14-110.36 0.5-0.86 191.14 110.36zm0.89-3.53 1.96 4.6-4.96 0.6zm-192.42-104.16-1.96-4.6 4.96-0.6z" style="fill:#505a64"/><path d="m464.65 307.27-220.92-59.2 0.26-0.97 220.92 59.2zm-0.06-3.64 3.09 3.93-4.64 1.86zm-220.54-52.89-3.09-3.93 4.64-1.86z" style="fill:#505a64"/><path d="m464.62 246.55-189.45-50.27 0.26-0.96 189.45 50.27zm-0.07-3.64 3.1 3.93-4.64 1.87zm-189.05-43.95-3.1-3.93 4.64-1.87z" style="fill:#505a64"/><path d="m434.8 358.47-160.63-160.92 0.7-0.71 160.64 160.92zm1.77-3.18 0.7 4.95-4.95-0.71zm-163.47-155.27-0.7-4.95 4.95 0.71z" style="fill:#505a64"/><path d="m382.75 388.25-110.36-191.15 0.86-0.5 110.36 191.15zm2.53-2.61-0.6 4.96-4.6-1.96zm-114.56-186.42 0.6-4.96 4.6 1.96z" style="fill:#505a64"/><path d="m325.14 387.83 59.2-220.92-0.97-0.26-59.2 220.92zm-3.12-1.87 1.86 4.64 3.93-3.09zm64.47-217.44-1.86-4.64-3.93 3.09z" style="fill:#505a64"/><path d="m273.25 357.89 110.36-191.15-0.86-0.5-110.36 191.15zm-2.53-2.61 0.6 4.96 4.6-1.96zm114.56-186.42-0.6-4.96-4.6 1.96z" style="fill:#505a64"/><path d="m465.65 305.21-79.98-138.54 0.86-0.5 79.99 138.54zm2.53-2.61-0.6 4.96-4.59-1.96zm-84.18-133.81 0.6-4.97 4.6 1.97z" style="fill:#505a64"/><path d="m324.38 387.6v-220.72h-1v220.72zm-3.5-1 3 4 3-4zm6-218.72-3-4-3 4z" style="fill:#505a64"/><path d="m436.5 370.72c0 3.18 1.78 6.01 4.26 7.43 0 6.73 5.69 12.39 12.79 12.39 4.62 0 8.53-2.48 11.02-6.02 0.71 0.36 1.42 0.36 2.49 0.36 3.91 0 7.46-2.48 8.52-6.02 3.91-1.06 6.4-4.25 6.4-8.14 0-4.61-3.91-8.5-8.53-8.5h-28.42c-4.62 0-8.53 3.89-8.53 8.5z" style="fill:none;stroke-linejoin:round;stroke-miterlimit:10;stroke-width:2.28;stroke:#aab414"/><path d="m387 407.82c0 3.15 2.55 5.7 5.7 5.7s5.7-2.55 5.7-5.7-2.55-5.7-5.7-5.7-5.7 2.55-5.7 5.7z" style="fill-rule:evenodd;fill:#50143c"/><g clip-path="url(#b)"><path d="m381.73 394.46c-0.25 3.74 4.48 6.9 10.57 7.05 6.09 0.16 11.24-2.75 11.49-6.49 0.01-0.07 0.01-0.14 0.01-0.22z" style="fill-rule:evenodd;fill:#50143c"/></g><path d="m309.84 156.36c0 3.18 2.55 5.76 5.7 5.76s5.7-2.58 5.7-5.76-2.55-5.76-5.7-5.76-5.7 2.58-5.7 5.76z" style="fill-rule:evenodd;fill:#50143c"/><g clip-path="url(#a)"><path d="m304.57 143.06c-0.25 3.74 4.46 6.9 10.52 7.05 6.06 0.16 11.17-2.75 11.42-6.49 0.01-0.07 0.01-0.15 0.01-0.22z" style="fill-rule:evenodd;fill:#50143c"/></g></g></svg>
