<?xml version="1.0" encoding="UTF-8"?>
<svg id="SVGRoot" width="86" height="32" version="1.1" viewBox="0 0 86 32" xmlns="http://www.w3.org/2000/svg" xmlns:cc="http://creativecommons.org/ns#" xmlns:dc="http://purl.org/dc/elements/1.1/" xmlns:rdf="http://www.w3.org/1999/02/22-rdf-syntax-ns#">
 <metadata>
  <rdf:RDF>
   <cc:Work rdf:about="">
    <dc:format>image/svg+xml</dc:format>
    <dc:type rdf:resource="http://purl.org/dc/dcmitype/StillImage"/>
    <dc:title/>
    <cc:license rdf:resource="http://creativecommons.org/licenses/by-sa/4.0/"/>
    <dc:creator>
     <cc:Agent>
      <dc:title>Siemens AG</dc:title>
     </cc:Agent>
    </dc:creator>
   </cc:Work>
   <cc:License rdf:about="http://creativecommons.org/licenses/by-sa/4.0/">
    <cc:permits rdf:resource="http://creativecommons.org/ns#Reproduction"/>
    <cc:permits rdf:resource="http://creativecommons.org/ns#Distribution"/>
    <cc:requires rdf:resource="http://creativecommons.org/ns#Notice"/>
    <cc:requires rdf:resource="http://creativecommons.org/ns#Attribution"/>
    <cc:permits rdf:resource="http://creativecommons.org/ns#DerivativeWorks"/>
    <cc:requires rdf:resource="http://creativecommons.org/ns#ShareAlike"/>
   </cc:License>
  </rdf:RDF>
 </metadata>
 <g>
  <rect x="8" y="6" width="15" height="20" style="fill:#fff;stroke-width:.9934"/>
 </g>
 <path d="m16 0a16 16 0 0 0-16 16 16 16 0 0 0 16 16 16 16 0 0 0 16-16 16 16 0 0 0-16-16zm0.67383 7.4609c1.6094 0 3.2461 0.32812 4.9102 0.98438v4.6406h-2.8359l-0.19922-2.3672c-0.57812-0.21875-1.168-0.32812-1.7695-0.32812-1.3672 0-2.4219 0.49609-3.1641 1.4883-0.78125 1.0547-1.1719 2.4375-1.1719 4.1484 0 1.9766 0.50781 3.4766 1.5234 4.5 0.78906 0.79687 1.8242 1.1953 3.1055 1.1953 0.80469 0 1.5742-0.16016 2.3086-0.48047 0.40625-0.17188 0.90234-0.4375 1.4883-0.79688l1.0781 2.9883c-0.71094 0.35937-1.3008 0.61328-1.7695 0.76172-0.9375 0.30469-2.0586 0.45703-3.3633 0.45703-1.5859 0-2.9023-0.23438-3.9492-0.70312-1.4531-0.64844-2.5508-1.6836-3.293-3.1055-0.66406-1.2656-0.99609-2.8164-0.99609-4.6523 0-3.0781 0.92188-5.4102 2.7656-6.9961 1.3438-1.1562 3.1211-1.7344 5.332-1.7344z" style="fill:#ff8c00"/>
 <g style="fill:#fff" aria-label="oaty">
  <path d="m40.535 11.801q3.1289 0 4.7227 1.8281 1.5234 1.7578 1.5234 4.6055 0 3.1406-1.8047 4.9102-1.5703 1.5352-4.5234 1.5352-3.1875 0-4.793-1.8281-1.5234-1.7461-1.5234-4.6172 0-3.1406 1.8047-4.9102 1.5703-1.5234 4.5938-1.5234zm-0.11719 2.6367q-1.4766 0-2.1328 1.4648-0.41016 0.92578-0.41016 2.332 0 1.5586 0.50391 2.5312 0.66797 1.2773 2.0742 1.2773 1.5234 0 2.1797-1.4648 0.41016-0.92578 0.41016-2.3438 0-1.5586-0.50391-2.5195-0.35156-0.67969-0.87891-0.99609-0.46875-0.28125-1.2422-0.28125z" style=""/>
  <path d="m56.836 24.387-0.12891-1.3711q-0.65625 0.66797-1.2188 1.0078-1.1133 0.65625-2.6953 0.65625-1.875 0-2.918-0.94922-1.1367-1.043-1.1367-2.8359 0-2.2617 1.7227-3.3516 1.1836-0.73828 3.9023-0.73828 0.91406 0 2.1797 0.08203v-0.39844q0-1.1016-0.57422-1.582-0.66797-0.5625-1.9805-0.5625-1.6172 0-3.5625 1.0078l-0.70312-2.5664q2.2148-0.98438 4.7109-0.98438 3.0938 0 4.5703 1.3711 0.84375 0.77344 1.0547 2.0508 0.10547 0.57422 0.10547 1.8984v4.5469l1.3945 0.08203v2.6367zm-0.29297-5.4609q-0.72656-0.05859-1.1602-0.05859-1.5 0-2.1562 0.43359-0.75 0.51562-0.75 1.5 0 0.65625 0.38672 1.1133 0.44531 0.50391 1.2188 0.50391 1.3828 0 2.4609-1.5938z" style=""/>
  <path d="m64.945 14.731h-1.9688v-2.6367h1.9688v-2.6484l3.6211-0.66797v3.3164h2.7188v2.6367h-2.7188v4.957q0 1.0078 0.23438 1.4531 0.35156 0.67969 1.3828 0.67969 0.50391 0 1.2891-0.25781l0.31641 2.6719q-1.4883 0.44531-2.9883 0.44531-2.2617 0-3.1992-1.3828-0.45703-0.67969-0.57422-1.8633-0.08203-0.77344-0.08203-1.7461z" style=""/>
  <path d="m77.285 23.93-3.8789-9.1289-1.0312-0.07031v-2.6367h6.1172v2.6367l-1.3008 0.07031 1.0898 2.6602q0.51562 1.3008 1.0547 2.9414 0.55078-1.7695 1.043-3.1055l0.94922-2.4961-1.3008-0.07031v-2.6367h5.8125v2.6367l-1.0312 0.07031-3.8203 9.2695q-0.89062 2.1445-1.4297 3.1406-0.76172 1.418-1.8047 2.0391-0.99609 0.60938-2.4727 0.60938-1.6523 0-3.0469-0.55078l0.62109-2.7305q0.9375 0.39844 1.6641 0.39844 0.91406 0 1.4414-0.60938 0.60938-0.71484 1.3242-2.4375z" style=""/>
 </g>
</svg>
