<?xml version="1.0" encoding="iso-8859-1"?>
<!-- Generator: Adobe Illustrator 16.0.4, SVG Export Plug-In . SVG Version: 6.00 Build 0)  -->
<!DOCTYPE svg PUBLIC "-//W3C//DTD SVG 1.1//EN" "http://www.w3.org/Graphics/SVG/1.1/DTD/svg11.dtd">
<svg version="1.1" xmlns="http://www.w3.org/2000/svg" xmlns:xlink="http://www.w3.org/1999/xlink" x="0px" y="0px" width="1000px"
	 height="423px" viewBox="0 0 1000 423" style="enable-background:new 0 0 1000 423;" xml:space="preserve">
<g id="Layer">
	<polygon style="fill:#FFFFFF;" points="0,423 1000,423 1000,0 0,0 0,0 	"/>
</g>
<g id="Ingenuity_for_life">
	<path d="M348.543,317.098l0.053,0.896c0.17,2.795,0.281,5.518,0.329,8.098l0.003,0.193l-0.16,0.107
		c-12.113,8.117-19.642,16.879-23.017,26.777c-2.615,7.67-2.179,15.035,1.164,19.707c2.279,3.186,5.69,4.869,9.863,4.869
		c7.192,0,12.862-5.465,16.852-16.245c4.139-11.179,5.46-25.356,5.839-35.28l0.009-0.188l0.16-0.1
		c5.276-3.24,11.493-6.455,18.473-9.557l0.269-0.121l0.166,0.245c3.167,4.661,10.37,9.381,18.009,9.381
		c9.42,0,18.605-7.278,22.117-10.405l0.462-0.412l0.119,0.607c0.558,2.844,2.186,5.066,4.977,6.796
		c4.573,2.835,8.167,2.884,10.94,0.099c2.057-2.067,3.676-3.964,5.104-5.635c2.425-2.84,4.518-5.291,7.829-7.59
		c1.425-0.996,2.846-0.604,3.783,1c5.653,9.67,12.144,15.046,18.769,15.543c1.978,0.141,3.588-0.438,3.845-1.334
		c0.172-0.602-0.327-1.322-1.369-1.971c-4.228-2.633-7.876-7.939-11.152-16.227c-1.118-2.812-2.608-4.602-7.655-6.57
		c-0.956-0.371-1.817-0.555-2.63-0.555c-1.7,0-2.897,0.813-4.057,1.6l-0.307,0.206c-3.484,2.334-7.674,6.687-10.731,9.864
		c-1.388,1.444-2.589,2.691-3.364,3.37c-1.33,1.166-2.326,1.392-2.921,0.772c-0.453-0.469-0.521-1.303-0.5-1.922
		c0.174-4.725,1.502-9.518,4.305-15.544c0.486-1.048,0.551-2.009,0.193-2.856c-0.489-1.16-1.77-2.131-3.7-2.805
		c-1.229-0.432-2.257-0.641-3.147-0.641c-2.317,0-3.396,1.484-4.301,3.711c-1.642,4.036-2.523,7.234-3.369,12.222l-0.02,0.114
		l-0.083,0.078c-8.401,8.217-15.833,12.384-22.088,12.384c-4.89,0-8.073-2.835-8.731-7.778l-0.034-0.261l0.239-0.108
		c6.909-3.116,13.753-6.547,17.005-10.516c2.372-2.9,1.922-5.506,1.128-7.182c-1.485-3.135-5.474-5.59-9.083-5.59
		c-4.565,0-21.341,8.447-21.372,23.203l-0.002,0.23l-0.21,0.093c-4.038,1.761-10.098,4.465-16.083,7.617l-0.594,0.313l0.081-0.666
		c1.011-8.453,3.407-15.258,4.532-17.674c0.756-1.621,0.955-2.721,0.643-3.562c-0.322-0.873-1.206-1.57-3.049-2.408
		c-2.315-1.051-4.673-0.801-6.367,0.638l-0.313,0.265l-0.215-0.35c-0.021-0.032-2.115-3.336-6.408-3.336
		c-8.837,0-21.833,15.217-22.789,21.208c-0.25,1.565,0.256,3.101,1.502,4.562c2.363,2.771,7.226,4.83,10.969,4.609
		c3.738-0.225,7.557-2.902,9.522-5.299L348.543,317.098z M595.172,317.432l-0.24,0.516c-1.949,4.111-3.811,8.615-5.781,13.383
		c-5.504,13.344-11.748,28.465-23.344,43.648c-0.531,0.697-0.695,1.34-0.461,1.812c0.221,0.453,0.812,0.724,1.57,0.724
		c0.812,0,1.744-0.307,2.615-0.863c7.758-4.941,18.793-21.504,30.271-45.438c8.657-18.029,14.27-24.021,18.775-28.835
		c0.544-0.581,1.075-1.147,1.592-1.716c0.699-0.765,0.965-1.5,0.792-2.183c-0.289-1.116-1.736-2.179-4.078-2.989
		c-3.238-1.121-5.705-0.699-7.49,1.307l-0.213,0.244c-5.871,6.662-13.595,14.602-17.021,14.602c-0.879,0-1.605-0.303-2.152-0.896
		c-1.654-1.793-1.334-5.777-1.1-8.686c0.041-0.502,0.08-0.961,0.1-1.354c0.131-2.496-1.25-3.775-4.775-4.415
		c-2.68-0.487-11.564-1.05-18.355-1.382l-0.406-0.02l0.076-0.398c1.93-10.191,5.085-20.137,7.852-24.75
		c1.043-1.74,1.812-3.148,1.408-4.125c-0.334-0.812-1.521-1.453-3.73-2.012c-0.893-0.229-1.719-0.342-2.463-0.342
		c-3.586,0-4.672,2.68-5.395,4.455c-3.312,8.166-5.885,17.561-7.264,26.488l-0.047,0.307l-0.311-0.006
		c-1.805-0.051-3.314-0.07-4.369-0.054c-1.219,0.016-1.959,0.251-2.265,0.722c-0.284,0.438-0.219,1.146,0.194,2.108
		c0.639,1.479,2.213,4.106,5.57,5.06l0.276,0.077l-0.021,0.288c-0.145,2.016-0.221,4.015-0.234,5.94
		c-0.076,9.849,2.881,15.655,8.555,16.794c0.223,0.045,0.479,0.066,0.744,0.066c0.747,0,1.732-0.197,2.057-0.756
		c0.195-0.334,0.131-0.791-0.189-1.355c-2.828-4.992-2.402-14.375-1.547-21.367l0.031-0.267l0.265-0.04
		c3.721-0.547,8.405-1.187,11.644-1.246h0.098c0.744,0,1.268,0.17,1.598,0.523c0.432,0.454,0.455,1.121,0.414,1.771
		c-0.09,1.485-0.117,6.622,3.438,10.404c2.777,2.951,7.07,4.398,12.75,4.266L595.172,317.432z M335.643,373.084
		c-1.349,0-2.487-0.605-3.29-1.751c-1.235-1.761-2.709-6.366,1.294-17.436c2.601-7.188,7.4-13.685,14.669-19.859l0.603-0.511
		l-0.021,0.79C348.263,357.141,342.812,373.084,335.643,373.084z M843.866,313.318l-0.065,0.416
		c-1.747,10.937-2.498,21.282-2.009,27.676c0.658,8.547,3.362,11.018,5.34,12.137c1.612,0.912,3.218,1.189,3.776,0.568
		c0.275-0.311,0.372-0.846,0.282-1.596c-1.199-10.34-0.269-25.074,2.55-40.427l0.041-0.232l0.234-0.05
		c4.686-0.972,9.715-2.252,14.166-3.604l0.523-0.158l-0.068,0.541c-0.438,3.443,1.099,7.447,4.217,10.984
		c5.836,6.625,15.844,10.425,27.453,10.425c6.784,0,12.672-2.653,14.684-4.539c0.861-0.803,1.141-1.71,0.961-2.155
		c-0.151-0.387-0.706-0.48-1.509-0.252c-4.265,1.199-8.489,1.808-12.547,1.808c-9.229,0-16.571-3.15-20.144-8.642l-0.311-0.479
		l0.568-0.064c7.084-0.816,15.71-4.885,17.085-8.062c1.209-2.787,0.272-5.182-0.728-6.699c-2.17-3.31-6.684-5.709-10.728-5.709
		c-5.085,0-11.327,2.645-15.173,6.432l-0.068,0.067l-0.093,0.024c-5.65,1.412-11.403,2.525-16.637,3.216l-0.503,0.065l0.11-0.492
		c2.273-10.223,5.14-19.426,8.289-26.619c1.006-2.303,2.005-3.748,3.872-3.848c1.743-0.128,3.09,1.013,3.872,3.174
		c0.255,0.715,0.758,1.178,1.278,1.178c0.596,0,1.209-0.574,1.727-1.617c1.054-2.127,0.206-6.646-3.562-9.178
		c-2.315-1.553-4.492-2.34-6.474-2.34c-2.478,0-4.606,1.271-6.146,3.678c-5.131,8.01-9.688,20.984-12.834,36.531l-0.059,0.281
		l-0.458,0.002c-2.174,0-4.082-0.133-5.677-0.396c-1.571-0.257-2.611-0.021-2.987,0.684c-0.499,0.934,0.065,2.738,1.55,4.954
		c1.416,2.113,3.359,2.377,5.777,2.325L843.866,313.318z M656.222,310.484l-0.086,0.521c-1.536,9.369-2.294,18.745-2.032,25.078
		c0.303,7.227,1.723,11.516,4.334,13.111c0.682,0.418,1.605,0.678,2.418,0.678c0.51,0,1.213-0.104,1.654-0.596
		c0.351-0.393,0.488-0.983,0.402-1.755c-0.975-8.899,0.307-23.742,3.346-38.74l0.048-0.239l0.241-0.038
		c5.092-0.819,10.463-1.487,15.527-1.925l0.83-0.072l-0.523,0.646c-1.041,1.281-1.551,3.156-1.551,5.73
		c0,5.768,7.531,14.143,19.327,14.143c6.973,0,15.393-6.077,15.393-13.625c0-9.652-8.075-16.135-15.616-16.135
		c-3.076,0-6.267,1.416-8.754,3.885l-0.104,0.105l-0.152-0.002c-1.867-0.025-3.734-0.039-5.588-0.039
		c-6.19,0-11.923,0.156-17.043,0.467l-0.475,0.029l0.113-0.463c2.588-10.66,5.682-19.479,8.943-25.504
		c1.303-2.402,2.185-3.504,3.966-3.693c0.134-0.014,0.265-0.021,0.39-0.021c1.722,0,3.128,1.237,4.186,3.676
		c0.203,0.469,0.647,0.971,1.277,0.971c0.617,0,1.289-0.457,1.943-1.32c0.838-1.107,1.089-2.867,0.676-4.703
		c-0.582-2.552-2.326-4.744-4.789-6.014c-2.287-1.18-4.361-1.777-6.156-1.777c-2.611,0-4.778,1.232-6.618,3.77
		c-7.372,10.165-11.672,25.057-13.983,35.759l-0.052,0.245l-0.248,0.03c-8.007,1.009-14.429,2.575-19.1,4.653
		c-1.254,0.558-1.923,1.195-1.981,1.895c-0.079,0.926,0.872,2.084,2.75,3.35c2.932,1.975,5.268,2.26,7.617,0.961
		c1.667-0.922,4.768-1.932,8.957-2.919L656.222,310.484z M816.615,313.871l-0.048,1.117c-0.276,6.677,1.536,11.312,5.54,14.17
		c0.984,0.703,2.204,1.139,3.189,1.139c0.59,0,1.041-0.16,1.261-0.453c0.214-0.277,0.245-0.686,0.101-1.215
		c-1.574-5.73-0.965-13.222,1.664-20.551c1.343-3.752,1.918-5.98-1.943-8.135c-2.945-1.648-5.071-1.696-6.25-0.072
		c-0.123,0.166-0.237,0.34-0.357,0.523l-0.241,0.357c-6.784,9.92-17.205,21.506-24.233,21.506c-1.109,0-2.046-0.406-2.787-1.209
		c-1.498-1.625-2.066-4.748-1.695-9.285c0.948-11.562,5.971-28.285,11.193-37.283c1.31-2.254,1.678-3.639,1.195-4.492
		c-0.443-0.789-1.732-1.205-3.834-1.24l-0.241-0.002c-4.927,0-6.759,2.567-7.903,5.078c-4.385,9.668-9.666,24.414-9.929,39.764
		c-0.068,4.053,1.31,7.547,4.097,10.384c3.714,3.776,8.675,5.147,11.104,5.147c7.387,0,15.352-8.996,19.438-14.357L816.615,313.871z
		 M261.581,260.42c-2.424,0-3.592,1.612-3.877,3.121c-0.46,2.436-1.314,6.148-2.303,10.445c-2.568,11.168-6.087,26.463-6.966,37.392
		c-1.113,13.864,1.971,16.827,5.469,17.964c0.832,0.275,1.539,0.193,1.96-0.235c0.384-0.388,0.574-1.056,0.565-1.987
		c-0.102-11.871,7.843-44.184,11.953-57.459c1.548-5.003,0.203-6.73-2.822-8.172C264.071,260.779,262.733,260.42,261.581,260.42z
		 M727.684,298.652c-0.771,0-1.791,0.139-2.281,0.797c-0.337,0.453-0.379,1.117-0.12,1.971c1.285,4.242-0.361,12.068-1.344,16.745
		c-0.147,0.712-0.282,1.347-0.389,1.881c-0.737,3.8,1.013,4.829,3.438,6.253c1.129,0.665,2.308,1.029,3.327,1.029
		c1.006,0,2.325-0.369,2.888-2.133c2.734-8.658,10.479-23.326,31.584-24.275c0.579-0.023,0.992-0.393,1.1-0.982
		c0.151-0.816-0.324-1.916-1.73-2.525c-1.374-0.598-3.169-0.901-5.329-0.901c-6.759,0-15.593,2.94-21.99,7.315l-0.396,0.272
		l-0.142-0.462c-0.203-0.67-3.435-3.924-6.566-4.711C729.027,298.746,728.317,298.652,727.684,298.652z M281.693,290.141
		c-2.174,0-3.212,1.48-4.182,3.865c-1.983,4.871-4.547,15.117-5.6,22.373c-0.665,4.561,0.593,6.184,3.856,8.301
		c3.728,2.422,7.522,2.532,9.612,0.217c0.902-1,1.839-2.059,2.797-3.141c4.251-4.799,9.071-10.24,13.25-13.25
		c1.003-0.721,2.14-0.262,2.611,1c4.965,13.324,13.1,15.312,17.508,15.312c0.624,0,1.254-0.039,1.873-0.115
		c1.608-0.199,2.541-1.332,2.484-2.27c-0.038-0.609-0.489-0.958-1.24-0.958l-0.215,0.002c-6.613,0-7.97-6.581-9.85-15.688
		l-0.195-0.938c-0.634-3.076-2.84-5.396-6.38-6.711c-0.98-0.363-1.857-0.541-2.684-0.541c-1.821,0-3.062,0.891-4.263,1.752
		c-3.397,2.432-8.134,7.313-11.941,11.236c-3.528,3.635-5.252,5.389-5.915,5.543l-0.508,0.117l0.081-0.516
		c0.57-3.674,2.615-12.114,5.667-19.129c0.407-0.93,0.445-1.816,0.116-2.637c-0.482-1.199-1.74-2.25-3.635-3.041
		C283.688,290.404,282.596,290.141,281.693,290.141z M507.276,310.83l0.034,0.777c0.375,8.641,6.264,12.971,9.057,13.715
		c1.641,0.439,3.012,0.221,3.418-0.5c0.207-0.363,0.155-0.844-0.146-1.354c-3.899-6.605-1.512-18.982-1.229-20.373
		c0.86-4.19-1.334-5.537-3.66-6.964l-0.107-0.065c-1.074-0.66-2.195-1.023-3.158-1.023c-0.709,0-1.643,0.198-2.05,1.143
		c-3.225,7.498-13.6,18.562-18.645,18.562c-1.499,0-2.603-0.545-3.285-1.618c-1.706-2.686-0.232-8.075,1.715-12.224
		c1.265-2.695,0.586-4.396-2.425-6.064c-1.473-0.816-2.872-1.249-4.046-1.249c-1.5,0-2.567,0.675-3.168,2.009
		c-0.906,2.005-2.716,7.081-3.757,13.398c-0.47,2.854,0.496,5.867,2.722,8.49c2.632,3.1,6.616,5.183,9.915,5.183
		c4.318,0,10.289-3.698,18.254-11.306L507.276,310.83z M535.066,293.621c-1.955,0-3.154,1.383-4.01,4.625
		c-2.36,8.944-1.996,16.828,1.004,21.631c1.549,2.48,3.688,4.007,6.357,4.537c1.516,0.302,2.752,0.064,3.164-0.578
		c0.248-0.387,0.144-0.814,0.012-1.104c-2.256-4.968-2.908-13.72,0.207-20.838c1.576-3.601,0.809-5.546-2.838-7.187
		C537.338,293.975,536.064,293.621,535.066,293.621z M698.276,320.57c-2.019,0-3.769-0.777-4.927-2.186
		c-1.227-1.488-1.688-3.551-1.274-5.663c0.72-3.665,5.054-8.146,9.088-8.146c1.716,0,3.218,0.643,4.348,1.856
		c1.499,1.61,2.067,3.896,1.964,5.337C707.13,316.458,702.83,320.57,698.276,320.57z M339.478,315.859
		c-0.78,0-1.206-0.351-1.424-0.644c-0.427-0.573-0.491-1.46-0.181-2.501c0.984-3.29,8.132-13.883,11.479-13.883
		c0.915,0,1.776,0.506,2.363,1.386c0.843,1.263,0.965,3.011,0.319,4.565C349.951,309.799,343.886,315.859,339.478,315.859z
		 M879.564,310.461l-0.041-0.369c-0.507-4.717,2.865-7.612,6.187-8.751c0.541-0.185,1.096-0.278,1.654-0.278
		c1.471,0,2.704,0.644,3.218,1.679c0.475,0.956,0.262,2.108-0.6,3.243c-2.088,2.752-7.193,3.949-10.053,4.417L879.564,310.461z
		 M389.08,306.311l0.155-0.723c1.039-4.857,3.561-8.631,7.099-10.625c0.533-0.301,1.149-0.459,1.783-0.459
		c1.273,0,2.377,0.637,2.749,1.586c0.247,0.631,0.377,1.949-1.514,3.695c-2.15,1.988-5.293,4.012-9.613,6.193L389.08,306.311z
		 M832.297,269.631c-1.061,0-1.908,0.283-2.267,0.76c-0.706,0.93-0.313,2.211,0.138,3.123c1.691,3.396,6.629,6.988,9.605,6.988
		c0.864,0,1.516-0.301,1.936-0.895c0.872-1.227-0.103-5.16-2.852-7.333C836.728,270.594,834.337,269.631,832.297,269.631z
		 M537.984,269.367c-0.77,0-1.365,0.264-1.768,0.785c-0.751,0.973-0.81,2.122-0.174,3.416c1.416,2.879,6.02,5.705,9.299,5.705
		c1.15,0,2.006-0.345,2.541-1.021c0.352-0.443,0.043-1.256-0.174-1.702C546.258,273.546,541.084,269.367,537.984,269.367z"/>
</g>
<g id="SIEMENS">
	<g>
		<path style="fill-rule:evenodd;clip-rule:evenodd;fill:#009999;" d="M107.322,210.31v-20.634
			c11.744,3.696,22.136,5.545,31.176,5.545c12.481,0,18.723-3.299,18.723-9.893c0-2.458-0.908-4.523-2.729-6.196
			c-1.862-1.774-6.63-4.234-14.294-7.385c-13.75-5.653-22.715-10.475-26.886-14.462c-5.405-5.264-8.108-11.903-8.108-19.925
			c0-10.33,3.938-18.204,11.808-23.614c7.783-5.364,17.918-8.042,30.42-8.042c6.888,0,16.858,1.268,29.9,3.807v19.849
			c-9.703-3.876-18.71-5.81-27.032-5.81c-11.718,0-17.577,3.218-17.577,9.667c0,2.411,1.18,4.377,3.543,5.901
			c1.965,1.233,7.381,3.839,16.235,7.825c12.749,5.662,21.235,10.583,25.464,14.77c5.018,4.966,7.531,11.391,7.531,19.267
			c0,11.32-4.923,19.956-14.764,25.905c-7.972,4.825-18.311,7.228-31.008,7.228C129.003,214.111,118.2,212.849,107.322,210.31
			L107.322,210.31z"/>
		<polygon style="fill-rule:evenodd;clip-rule:evenodd;fill:#009999;" points="201.979,107.519 201.979,107.519 231.163,107.519 
			231.163,212 201.979,212 		"/>
		<polygon style="fill-rule:evenodd;clip-rule:evenodd;fill:#009999;" points="257.928,212 257.928,107.519 332.777,107.519 
			332.777,126.417 286.055,126.417 286.055,150.009 326.725,150.009 326.725,167.246 286.055,167.246 286.055,192.041 
			333.981,192.041 333.981,212 257.928,212 		"/>
		<polygon style="fill-rule:evenodd;clip-rule:evenodd;fill:#009999;" points="353.033,212 353.033,107.519 390.872,107.519 
			417.16,174.278 444.107,107.519 480.048,107.519 480.048,212 452.377,212 452.377,138.025 421.737,213.061 403.646,213.061 
			373.595,138.025 373.595,212 353.033,212 		"/>
		<polygon style="fill-rule:evenodd;clip-rule:evenodd;fill:#009999;" points="506.818,212 506.818,107.519 581.667,107.519 
			581.667,126.417 534.948,126.417 534.948,150.009 575.617,150.009 575.617,167.246 534.948,167.246 534.948,192.041 
			582.879,192.041 582.879,212 506.818,212 		"/>
		<polygon style="fill-rule:evenodd;clip-rule:evenodd;fill:#009999;" points="602.082,212 602.082,107.519 635.906,107.519 
			671.791,177.461 671.791,107.519 692.348,107.519 692.348,212 659.484,212 622.646,141.117 622.646,212 602.082,212 		"/>
		<path style="fill-rule:evenodd;clip-rule:evenodd;fill:#009999;" d="M713.066,210.31v-20.634
			c11.645,3.696,22.035,5.545,31.182,5.545c12.481,0,18.717-3.299,18.717-9.893c0-2.458-0.885-4.523-2.646-6.196
			c-1.871-1.774-6.659-4.234-14.369-7.385c-13.708-5.606-22.683-10.426-26.893-14.462c-5.402-5.217-8.1-11.88-8.1-19.995
			c0-10.286,3.928-18.133,11.807-23.544c7.771-5.364,17.918-8.042,30.423-8.042c7.028,0,16.138,1.116,27.31,3.359l2.581,0.448
			v19.849c-9.705-3.876-18.738-5.81-27.104-5.81c-11.675,0-17.497,3.218-17.497,9.667c0,2.411,1.175,4.377,3.531,5.901
			c1.874,1.187,7.311,3.793,16.312,7.825c12.653,5.662,21.122,10.583,25.387,14.77c5.026,4.966,7.534,11.391,7.534,19.267
			c0,11.32-4.896,19.956-14.687,25.905c-8.02,4.825-18.383,7.228-31.078,7.228C734.743,214.111,723.936,212.849,713.066,210.31
			L713.066,210.31z"/>
	</g>
</g>
</svg>
