<?xml version="1.0" encoding="UTF-8"?>
<svg id="logo-typescript" width="216.5" height="63.9" version="1.1" viewBox="-64.9 417 216.5 63.9" xmlns="http://www.w3.org/2000/svg" xmlns:cc="http://creativecommons.org/ns#" xmlns:dc="http://purl.org/dc/elements/1.1/" xmlns:rdf="http://www.w3.org/1999/02/22-rdf-syntax-ns#">
 <metadata>
  <rdf:RDF>
   <cc:Work rdf:about="">
    <dc:format>image/svg+xml</dc:format>
    <dc:type rdf:resource="http://purl.org/dc/dcmitype/StillImage"/>
    <dc:title/>
   </cc:Work>
  </rdf:RDF>
 </metadata>
 <style>.st0 {
      fill: #0074c1
    }</style>
 <path class="st0" d="m-38.2 427.7h-11.1v34.3h-4.5v-34.3h-11.1v-4.1h26.6v4.1z" style="fill:#0074c1"/>
 <path class="st0" d="m-16.9 434.6-12.6 31.8c-2.3 5.7-5.4 8.5-9.5 8.5-1.1 0-2.1-0.1-2.9-0.3v-3.9c0.9 0.3 1.8 0.5 2.6 0.5 2.2 0 3.9-1.3 5-4l2.2-5.2-10.7-27.4h4.9l7.4 21.1c0.1 0.3 0.3 1 0.6 2.1h0.2c0.1-0.4 0.3-1.1 0.5-2l7.8-21.2zm7.4 23.5h-0.1v16.6h-4.4v-40h4.4v4.8h0.1c2.2-3.6 5.3-5.5 9.5-5.5 3.5 0 6.3 1.2 8.3 3.7s3 5.7 3 9.9c0 4.6-1.1 8.3-3.3 11s-5.3 4.1-9.2 4.1c-3.6 0-6.3-1.5-8.3-4.6zm-0.1-11.1v3.8c0 2.3 0.7 4.2 2.2 5.8s3.3 2.4 5.6 2.4c2.7 0 4.7-1 6.3-3.1s2.3-4.9 2.3-8.5c0-3.1-0.7-5.4-2.1-7.2-1.4-1.7-3.3-2.6-5.7-2.6-2.6 0-4.6 0.9-6.2 2.7s-2.4 4-2.4 6.7zm48 2.4h-19.4c0.1 3.1 0.9 5.4 2.5 7.1s3.7 2.5 6.5 2.5c3.1 0 5.9-1 8.5-3.1v4.1c-2.4 1.8-5.6 2.6-9.6 2.6-3.9 0-6.9-1.2-9.1-3.7s-3.3-6-3.3-10.5c0-4.3 1.2-7.7 3.6-10.4s5.4-4 9-4 6.4 1.2 8.3 3.5c2 2.3 2.9 5.5 2.9 9.7v2.2zm-4.5-3.7c0-2.5-0.6-4.5-1.8-5.9s-2.9-2.1-5-2.1-3.8 0.7-5.3 2.2c-1.4 1.5-2.3 3.4-2.7 5.8zm6.9 15v-3c2.8 1.8 5.5 2.6 8.4 2.6 3 0 5.3-0.6 6.8-1.9 1.6-1.2 2.3-3 2.3-5.2 0-2-0.5-3.5-1.6-4.7-1-1.2-3.3-2.8-6.8-4.8-3.9-2.3-6.4-4.2-7.4-5.7s-1.6-3.3-1.6-5.3c0-2.7 1.1-5 3.2-6.9s4.9-2.8 8.4-2.8c2.3 0 4.6 0.4 6.9 1.2v2.8c-2.3-1-4.7-1.5-7.2-1.5-2.6 0-4.7 0.7-6.2 2s-2.3 3-2.3 5 0.5 3.5 1.6 4.7c1 1.2 3.3 2.7 6.8 4.7 3.6 2 6 3.8 7.2 5.4s1.8 3.4 1.8 5.5c0 2.9-1 5.3-3.1 7.2-2 1.9-4.9 2.8-8.7 2.8-1.3 0-2.8-0.2-4.6-0.6-1.6-0.5-2.9-1-3.9-1.5zm43.5 0.1c-2 1.2-4.5 1.9-7.3 1.9-3.7 0-6.7-1.3-9-3.8-2.3-2.6-3.4-5.9-3.4-10.1 0-4.4 1.3-7.9 3.9-10.7s5.9-4.2 9.9-4.2c2.1 0 4.1 0.4 6.1 1.3v2.8c-2-1.2-4.1-1.8-6.5-1.8-3.2 0-5.8 1.2-7.8 3.5s-3 5.3-3 9c0 3.6 0.9 6.4 2.7 8.6s4.2 3.2 7.2 3.2c2.7 0 5.1-0.7 7.2-2.2zm16.6-23.6c-0.8-0.6-1.8-0.9-2.9-0.9-2.2 0-4 1.1-5.4 3.3-1.5 2.2-2.2 5.4-2.2 9.5v12.9h-2.4v-27.4h2.4v6.1h0.1c0.6-2.1 1.6-3.7 3-4.9s2.9-1.7 4.7-1.7c1 0 1.9 0.2 2.7 0.5zm4.2-9.5c-0.5 0-1-0.2-1.4-0.6s-0.6-0.9-0.6-1.5 0.2-1.1 0.6-1.4c0.4-0.4 0.9-0.5 1.4-0.5 0.6 0 1 0.2 1.5 0.5 0.4 0.4 0.6 0.8 0.6 1.4s-0.2 1.1-0.6 1.5c-0.5 0.4-0.9 0.6-1.5 0.6zm-1.2 34.4v-27.4h2.5v27.4zm11.1-4.9h-0.1v17.5h-2.5v-40h2.5v5.7h0.1c1-2 2.4-3.6 4.2-4.7s3.8-1.6 6-1.6c3.5 0 6.2 1.2 8.2 3.6s2.9 5.7 2.9 9.8c0 4.6-1.1 8.3-3.4 11.1-2.2 2.8-5.2 4.2-8.9 4.2-4-0.1-7-1.9-9-5.6zm-0.1-10.2v3.5c0 2.8 0.9 5.1 2.6 7.1s4 3 6.8 3 5.1-1.2 6.8-3.6 2.6-5.6 2.6-9.5c0-3.4-0.8-6.2-2.4-8.2s-3.8-3-6.4-3c-3.2 0-5.7 1.1-7.4 3.2s-2.6 4.6-2.6 7.5zm36.7 14.7c-1.3 0.6-2.5 0.9-3.6 0.9-4.1 0-6.1-2.4-6.1-7.3v-18.4h-4.9v-2.3h4.9v-7.1c0.4-0.1 0.8-0.3 1.2-0.4s0.8-0.3 1.2-0.4v8h7.2v2.3h-7.2v18.1c0 1.9 0.3 3.3 0.9 4.1s1.6 1.3 3 1.3c1 0 2.1-0.3 3.3-1v2.2z" style="fill:#0074c1"/>
</svg>
